<svg xmlns="http://www.w3.org/2000/svg" viewBox="0 0 800 185.98"><title>7-segment-r1</title><g id="Layer_2" data-name="Layer 2"><g id="orirginal"><path d="M687.53,75l-6.88,3.86-3.84-7c-34.44-10.26-68.88-22.88-103.32-34.69l-8,4-3.89-8C528,21.92,494.51,11.8,461,5.78l-6.91,5-4.84-6.89a313.76,313.76,0,0,0-98.38.08L346,10.83l-6.94-4.95C305.52,11.94,272,22.07,238.45,33.32l-3.9,8-8-4C192.09,49.16,157.63,61.76,123.18,72l-3.84,7-6.85-3.86C75,85.65,37.5,93,0,93v93c133.45,0,266.9-93,400.35-93C533.56,93,666.78,186,800,186V93C762.51,93,725,85.62,687.53,75Z"/></g></g></svg>