<svg xmlns="http://www.w3.org/2000/svg" viewBox="0 0 800 185.98"><title>gauge-segmented</title><g id="Layer_2" data-name="Layer 2"><g id="Layer_2-2" data-name="Layer 2"><path d="M607,48.88c-18-6.28-36-12.61-54-18.54v93c18,5.93,36,12.26,54,18.54Z"/><path d="M667,68.94c-18-5.58-36-11.72-54-18v93c18,6.26,36,12.4,54,18Z"/><path d="M727,84.81c-18-3.76-36-8.58-54-14v93c18,5.45,36,10.27,54,14Z"/><path d="M187,51.08C169,57.32,151,63.45,133,69v93c18-5.56,36-11.69,54-17.93Z"/><path d="M547,28.38c-18-5.84-36-11.22-54-15.7v93c18,4.48,36,9.86,54,15.7Z"/><path d="M433,94.76a429.53,429.53,0,0,1,54,9.45v-93a429.53,429.53,0,0,0-54-9.45Z"/><path d="M733,86v93a350.39,350.39,0,0,0,67,7V93A350.39,350.39,0,0,1,733,86Z"/><path d="M367,1.84a431.6,431.6,0,0,0-54,9.51v93a431.6,431.6,0,0,1,54-9.51Z"/><path d="M73,177.82c18-3.74,36-8.55,54-14v-93c-18,5.43-36,10.24-54,14Z"/><path d="M427,1.2C418.12.43,409.23,0,400.35,0,391.23,0,382.12.45,373,1.26v93c9.12-.81,18.23-1.26,27.35-1.26,8.88,0,17.77.42,26.65,1.2Z"/><path d="M67,86A351.16,351.16,0,0,1,0,93v93A352,352,0,0,0,67,179Z"/><path d="M307,12.81c-18,4.49-36,9.88-54,15.71v93c18-5.83,36-11.22,54-15.71Z"/><path d="M247,30.48C229,36.41,211,42.73,193,49v93c18-6.26,36-12.58,54-18.51Z"/></g></g></svg>