<svg xmlns="http://www.w3.org/2000/svg" xmlns:xlink="http://www.w3.org/1999/xlink" viewBox="0 0 26.79 26.36"><defs><style>.cls-1,.cls-3{fill:none;}.cls-2{clip-path:url(#clip-path);}.cls-3{stroke:#000;stroke-linecap:round;stroke-miterlimit:10;stroke-width:2px;}</style><clipPath id="clip-path"><rect class="cls-1" x="1.4" y="4.36" width="24" height="24"/></clipPath></defs><title>light bulb 2</title><g id="Layer_2" data-name="Layer 2"><g id="Layer_1-2" data-name="Layer 1"><g class="cls-2"><path d="M10.4,25.36a1,1,0,0,0,1,1h4a1,1,0,0,0,1-1v-1h-6Zm3-19a7,7,0,0,0-4,12.74v2.26a1,1,0,0,0,1,1h6a1,1,0,0,0,1-1V19.1a7,7,0,0,0-4-12.74Zm2.85,11.1-.85.6v2.3h-4v-2.3l-.85-.6a5,5,0,1,1,5.7,0Z"/></g><line class="cls-3" x1="4.63" y1="22.16" x2="6.51" y2="20.29"/><line class="cls-3" x1="1" y1="13.4" x2="3.65" y2="13.4"/><line class="cls-3" x1="4.63" y1="4.63" x2="6.51" y2="6.51"/><line class="cls-3" x1="13.4" y1="1" x2="13.4" y2="3.65"/><line class="cls-3" x1="22.16" y1="4.63" x2="20.29" y2="6.51"/><line class="cls-3" x1="25.79" y1="13.4" x2="23.14" y2="13.4"/><line class="cls-3" x1="22.16" y1="22.16" x2="20.29" y2="20.29"/></g></g></svg>