<svg xmlns="http://www.w3.org/2000/svg" viewBox="0 0 800 185.98"><title>7-segment</title><g id="Layer_2" data-name="Layer 2"><g id="shape"><g id="_7-segment" data-name="7-segment"><path d="M337,6.25c-38,7.06-76,19.26-114,32.33v93c38-13.07,76-25.27,114-32.33Z"/><path d="M697,77.64c-38-10.15-76-24-114-37.12v93c38,13.16,76,27,114,37.11Z"/><path d="M103,170.67c38-10.12,76-23.89,114-37v-93c-38,13.14-76,26.91-114,37Z"/><path d="M463,99.13c38,7,76,19.22,114,32.3v-93c-38-13.08-76-25.29-114-32.3Z"/><path d="M703,79.21v93c32.33,8.29,64.67,13.78,97,13.78V93C767.67,93,735.33,87.5,703,79.21Z"/><path d="M97,79.25C64.67,87.52,32.33,93,0,93v93c32.33,0,64.67-5.47,97-13.74Z"/><path d="M457,5.08a319.24,319.24,0,0,0-114,.1v93a319.24,319.24,0,0,1,114-.1Z"/></g></g></g></svg>