<svg xmlns="http://www.w3.org/2000/svg" xmlns:xlink="http://www.w3.org/1999/xlink" viewBox="0 0 324.19 324.18"><defs><style>.cls-1{fill:url(#Dial_Gradient);}.cls-2{fill:url(#Dial_Gradient-2);}.cls-3{fill:url(#Dial_Gradient-3);}.cls-4{fill:url(#Dial_Gradient-4);}.cls-5{fill:url(#Dial_Gradient-5);}.cls-6{fill:url(#Dial_Gradient-6);}.cls-7{fill:url(#Dial_Gradient-7);}.cls-8{fill:url(#Dial_Gradient-8);}.cls-9{fill:url(#Dial_Gradient-9);}.cls-10{fill:url(#Dial_Gradient-10);}.cls-11{fill:url(#Dial_Gradient-11);}.cls-12{fill:url(#Dial_Gradient-12);}.cls-13{fill:url(#Dial_Gradient-13);}.cls-14{fill:url(#Dial_Gradient-14);}.cls-15{fill:url(#Dial_Gradient-15);}.cls-16{fill:url(#Dial_Gradient-16);}.cls-17{fill:url(#Dial_Gradient-17);}.cls-18{fill:url(#Dial_Gradient-18);}.cls-19{fill:url(#Dial_Gradient-19);}.cls-20{fill:url(#Dial_Gradient-20);}.cls-21{fill:url(#Dial_Gradient-21);}.cls-22{fill:url(#Dial_Gradient-22);}.cls-23{fill:url(#Dial_Gradient-23);}.cls-24{fill:url(#Dial_Gradient-24);}.cls-25{fill:url(#Dial_Gradient-25);}.cls-26{fill:url(#Dial_Gradient-26);}.cls-27{fill:url(#Dial_Gradient-27);}.cls-28{fill:url(#Dial_Gradient-28);}.cls-29{fill:url(#Dial_Gradient-29);}.cls-30{fill:url(#Dial_Gradient-30);}.cls-31{fill:url(#Dial_Gradient-31);}.cls-32{fill:url(#Dial_Gradient-32);}.cls-33{fill:url(#Dial_Gradient-33);}.cls-34{fill:url(#Dial_Gradient-34);}.cls-35{fill:url(#Dial_Gradient-35);}.cls-36{fill:url(#Dial_Gradient-36);}.cls-37{fill:url(#Dial_Gradient-37);}.cls-38{fill:url(#Dial_Gradient-38);}.cls-39{fill:url(#Dial_Gradient-39);}.cls-40{fill:url(#Dial_Gradient-40);}.cls-41{fill:url(#Dial_Gradient-41);}.cls-42{fill:url(#Dial_Gradient-42);}.cls-43{fill:url(#Dial_Gradient-43);}.cls-44{fill:url(#Dial_Gradient-44);}.cls-45{fill:url(#Dial_Gradient-45);}.cls-46{fill:url(#Dial_Gradient-46);}.cls-47{fill:url(#Dial_Gradient-47);}.cls-48{fill:url(#Dial_Gradient-48);}.cls-49{fill:url(#Dial_Gradient-49);}.cls-50{fill:url(#Dial_Gradient-50);}.cls-51{fill:url(#Dial_Gradient-51);}.cls-52{fill:url(#Dial_Gradient-52);}.cls-53{fill:url(#Dial_Gradient-53);}.cls-54{fill:url(#Dial_Gradient-54);}.cls-55{fill:url(#Dial_Gradient-55);}.cls-56{fill:url(#Dial_Gradient-56);}.cls-57{fill:url(#Dial_Gradient-57);}.cls-58{fill:url(#Dial_Gradient-58);}.cls-59{fill:url(#Dial_Gradient-59);}.cls-60{fill:url(#Dial_Gradient-60);}.cls-61{fill:url(#Dial_Gradient-61);}.cls-62{fill:url(#Dial_Gradient-62);}.cls-63{fill:url(#Dial_Gradient-63);}.cls-64{fill:url(#Dial_Gradient-64);}.cls-65{fill:url(#Dial_Gradient-65);}.cls-66{fill:url(#Dial_Gradient-66);}.cls-67{fill:url(#Dial_Gradient-67);}.cls-68{fill:url(#Dial_Gradient-68);}.cls-69{fill:url(#Dial_Gradient-69);}.cls-70{fill:url(#Dial_Gradient-70);}.cls-71{fill:url(#Dial_Gradient-71);}.cls-72{fill:url(#Dial_Gradient-72);}.cls-73{fill:url(#Dial_Gradient-73);}.cls-74{fill:url(#Dial_Gradient-74);}.cls-75{fill:url(#Dial_Gradient-75);}.cls-76{fill:url(#Dial_Gradient-76);}.cls-77{fill:url(#Dial_Gradient-77);}.cls-78{fill:url(#Dial_Gradient-78);}.cls-79{fill:url(#Dial_Gradient-79);}.cls-80{fill:url(#Dial_Gradient-80);}.cls-81{fill:url(#Dial_Gradient-81);}.cls-82{fill:url(#Dial_Gradient-82);}.cls-83{fill:url(#Dial_Gradient-83);}.cls-84{fill:url(#Dial_Gradient-84);}.cls-85{fill:url(#Dial_Gradient-85);}.cls-86{fill:url(#Dial_Gradient-86);}.cls-87{fill:url(#Dial_Gradient-87);}.cls-88{fill:url(#Dial_Gradient-88);}.cls-89{fill:url(#Dial_Gradient-89);}.cls-90{fill:url(#Dial_Gradient-90);}.cls-91{fill:url(#Dial_Gradient-91);}.cls-92{fill:url(#Dial_Gradient-92);}.cls-93{fill:url(#Dial_Gradient-93);}.cls-94{fill:url(#Dial_Gradient-94);}.cls-95{fill:url(#Dial_Gradient-95);}.cls-96{fill:url(#Dial_Gradient-96);}.cls-97{fill:url(#Dial_Gradient-97);}.cls-98{fill:url(#Dial_Gradient-98);}.cls-99{fill:url(#Dial_Gradient-99);}.cls-100{fill:url(#Dial_Gradient-100);}.cls-101{fill:url(#Dial_Gradient-101);}.cls-102{fill:url(#Dial_Gradient-102);}.cls-103{fill:url(#Dial_Gradient-103);}.cls-104{fill:url(#Dial_Gradient-104);}.cls-105{fill:url(#Dial_Gradient-105);}.cls-106{fill:url(#Dial_Gradient-106);}.cls-107{fill:url(#Dial_Gradient-107);}.cls-108{fill:url(#Dial_Gradient-108);}.cls-109{fill:url(#Dial_Gradient-109);}.cls-110{fill:url(#Dial_Gradient-110);}.cls-111{fill:url(#Dial_Gradient-111);}.cls-112{fill:url(#Dial_Gradient-112);}.cls-113{fill:url(#Dial_Gradient-113);}.cls-114{fill:url(#Dial_Gradient-114);}.cls-115{fill:url(#Dial_Gradient-115);}.cls-116{fill:url(#Dial_Gradient-116);}.cls-117{fill:url(#Dial_Gradient-117);}.cls-118{fill:url(#Dial_Gradient-118);}.cls-119{fill:url(#Dial_Gradient-119);}.cls-120{fill:url(#Dial_Gradient-120);}.cls-121{fill:url(#Dial_Gradient-121);}.cls-122{fill:url(#Dial_Gradient-122);}.cls-123{fill:url(#Dial_Gradient-123);}.cls-124{fill:url(#Dial_Gradient-124);}.cls-125{fill:url(#Dial_Gradient-125);}.cls-126{fill:url(#Dial_Gradient-126);}.cls-127{fill:url(#Dial_Gradient-127);}.cls-128{fill:url(#Dial_Gradient-128);}.cls-129{fill:url(#Dial_Gradient-129);}.cls-130{fill:url(#Dial_Gradient-130);}.cls-131{fill:url(#Dial_Gradient-131);}.cls-132{fill:url(#Dial_Gradient-132);}.cls-133{fill:url(#Dial_Gradient-133);}.cls-134{fill:url(#Dial_Gradient-134);}.cls-135{fill:url(#Dial_Gradient-135);}.cls-136{fill:url(#Dial_Gradient-136);}.cls-137{fill:url(#Dial_Gradient-137);}.cls-138{fill:url(#Dial_Gradient-138);}.cls-139{fill:url(#Dial_Gradient-139);}.cls-140{fill:url(#Dial_Gradient-140);}.cls-141{fill:url(#Dial_Gradient-141);}.cls-142{fill:url(#Dial_Gradient-142);}.cls-143{fill:url(#Dial_Gradient-143);}.cls-144{fill:url(#Dial_Gradient-144);}.cls-145{fill:url(#Dial_Gradient-145);}.cls-146{fill:url(#Dial_Gradient-146);}.cls-147{fill:url(#Dial_Gradient-147);}.cls-148{fill:url(#Dial_Gradient-148);}.cls-149{fill:url(#Dial_Gradient-149);}.cls-150{fill:url(#Dial_Gradient-150);}.cls-151{fill:url(#Dial_Gradient-151);}.cls-152{fill:url(#Dial_Gradient-152);}.cls-153{fill:url(#Dial_Gradient-153);}.cls-154{fill:url(#Dial_Gradient-154);}.cls-155{fill:url(#Dial_Gradient-155);}.cls-156{fill:url(#Dial_Gradient-156);}.cls-157{fill:url(#Dial_Gradient-157);}.cls-158{fill:url(#Dial_Gradient-158);}.cls-159{fill:url(#Dial_Gradient-159);}.cls-160{fill:url(#Dial_Gradient-160);}.cls-161{fill:url(#Dial_Gradient-161);}.cls-162{fill:url(#Dial_Gradient-162);}.cls-163{fill:url(#Dial_Gradient-163);}.cls-164{fill:url(#Dial_Gradient-164);}.cls-165{fill:url(#Dial_Gradient-165);}.cls-166{fill:url(#Dial_Gradient-166);}.cls-167{fill:url(#Dial_Gradient-167);}.cls-168{fill:url(#Dial_Gradient-168);}.cls-169{fill:url(#Dial_Gradient-169);}.cls-170{fill:url(#Dial_Gradient-170);}.cls-171{fill:url(#Dial_Gradient-171);}.cls-172{fill:url(#Dial_Gradient-172);}.cls-173{fill:url(#Dial_Gradient-173);}.cls-174{fill:url(#Dial_Gradient-174);}.cls-175{fill:url(#Dial_Gradient-175);}.cls-176{fill:url(#Dial_Gradient-176);}.cls-177{fill:url(#Dial_Gradient-177);}.cls-178{fill:url(#Dial_Gradient-178);}.cls-179{fill:url(#Dial_Gradient-179);}.cls-180{fill:url(#Dial_Gradient-180);}.cls-181{fill:url(#Dial_Gradient-181);}.cls-182{fill:url(#Dial_Gradient-182);}.cls-183{fill:url(#Dial_Gradient-183);}.cls-184{fill:url(#Dial_Gradient-184);}.cls-185{fill:url(#Dial_Gradient-185);}.cls-186{fill:url(#Dial_Gradient-186);}.cls-187{fill:url(#Dial_Gradient-187);}.cls-188{fill:url(#Dial_Gradient-188);}.cls-189{fill:url(#Dial_Gradient-189);}.cls-190{fill:url(#Dial_Gradient-190);}.cls-191{fill:url(#Dial_Gradient-191);}.cls-192{fill:url(#Dial_Gradient-192);}.cls-193{fill:url(#Dial_Gradient-193);}.cls-194{fill:url(#Dial_Gradient-194);}.cls-195{fill:url(#Dial_Gradient-195);}.cls-196{fill:url(#Dial_Gradient-196);}.cls-197{fill:url(#Dial_Gradient-197);}.cls-198{fill:url(#Dial_Gradient-198);}.cls-199{fill:url(#Dial_Gradient-199);}.cls-200{fill:url(#Dial_Gradient-200);}.cls-201{fill:url(#Dial_Gradient-201);}.cls-202{fill:url(#Dial_Gradient-202);}.cls-203{fill:url(#Dial_Gradient-203);}.cls-204{fill:url(#Dial_Gradient-204);}.cls-205{fill:url(#Dial_Gradient-205);}.cls-206{fill:url(#Dial_Gradient-206);}.cls-207{fill:url(#Dial_Gradient-207);}.cls-208{fill:url(#Dial_Gradient-208);}.cls-209{fill:url(#Dial_Gradient-209);}.cls-210{fill:url(#Dial_Gradient-210);}.cls-211{fill:url(#Dial_Gradient-211);}.cls-212{fill:url(#Dial_Gradient-212);}.cls-213{fill:url(#Dial_Gradient-213);}.cls-214{fill:url(#Dial_Gradient-214);}.cls-215{fill:url(#Dial_Gradient-215);}.cls-216{fill:url(#Dial_Gradient-216);}.cls-217{fill:url(#Dial_Gradient-217);}.cls-218{fill:url(#Dial_Gradient-218);}.cls-219{fill:url(#Dial_Gradient-219);}.cls-220{fill:url(#Dial_Gradient-220);}.cls-221{fill:url(#Dial_Gradient-221);}.cls-222{fill:url(#Dial_Gradient-222);}.cls-223{fill:url(#Dial_Gradient-223);}.cls-224{fill:url(#Dial_Gradient-224);}.cls-225{fill:url(#Dial_Gradient-225);}.cls-226{fill:url(#Dial_Gradient-226);}.cls-227{fill:url(#Dial_Gradient-227);}.cls-228{fill:url(#Dial_Gradient-228);}.cls-229{fill:url(#Dial_Gradient-229);}.cls-230{fill:url(#Dial_Gradient-230);}.cls-231{fill:url(#Dial_Gradient-231);}.cls-232{fill:url(#Dial_Gradient-232);}.cls-233{fill:url(#Dial_Gradient-233);}.cls-234{fill:url(#Dial_Gradient-234);}.cls-235{fill:url(#Dial_Gradient-235);}.cls-236{fill:url(#Dial_Gradient-236);}.cls-237{fill:url(#Dial_Gradient-237);}.cls-238{fill:url(#Dial_Gradient-238);}.cls-239{fill:url(#Dial_Gradient-239);}.cls-240{fill:url(#Dial_Gradient-240);}.cls-241{fill:url(#Dial_Gradient-241);}.cls-242{fill:url(#Dial_Gradient-242);}.cls-243{fill:url(#Dial_Gradient-243);}.cls-244{fill:url(#Dial_Gradient-244);}.cls-245{fill:url(#Dial_Gradient-245);}.cls-246{fill:url(#Dial_Gradient-246);}.cls-247{fill:url(#Dial_Gradient-247);}.cls-248{fill:url(#Dial_Gradient-248);}.cls-249{fill:url(#Dial_Gradient-249);}.cls-250{fill:url(#Dial_Gradient-250);}.cls-251{fill:url(#Dial_Gradient-251);}.cls-252{fill:url(#Dial_Gradient-252);}.cls-253{fill:url(#Dial_Gradient-253);}.cls-254{fill:url(#Dial_Gradient-254);}.cls-255{fill:url(#Dial_Gradient-255);}.cls-256{fill:url(#Dial_Gradient-256);}.cls-257{fill:url(#Dial_Gradient-257);}.cls-258{fill:url(#Dial_Gradient-258);}.cls-259{fill:url(#Dial_Gradient-259);}.cls-260{fill:url(#Dial_Gradient-260);}.cls-261{fill:url(#Dial_Gradient-261);}.cls-262{fill:url(#Dial_Gradient-262);}.cls-263{fill:url(#Dial_Gradient-263);}.cls-264{fill:url(#Dial_Gradient-264);}.cls-265{fill:url(#Dial_Gradient-265);}.cls-266{fill:url(#Dial_Gradient-266);}.cls-267{fill:url(#Dial_Gradient-267);}.cls-268{fill:url(#Dial_Gradient-268);}.cls-269{fill:url(#Dial_Gradient-269);}.cls-270{fill:url(#Dial_Gradient-270);}.cls-271{fill:url(#Dial_Gradient-271);}.cls-272{fill:url(#Dial_Gradient-272);}.cls-273{fill:url(#Dial_Gradient-273);}.cls-274{fill:url(#Dial_Gradient-274);}.cls-275{fill:url(#Dial_Gradient-275);}.cls-276{fill:url(#Dial_Gradient-276);}.cls-277{fill:url(#Dial_Gradient-277);}.cls-278{fill:url(#Dial_Gradient-278);}.cls-279{fill:url(#Dial_Gradient-279);}.cls-280{fill:url(#Dial_Gradient-280);}.cls-281{fill:url(#Dial_Gradient-281);}.cls-282{fill:url(#Dial_Gradient-282);}.cls-283{fill:url(#Dial_Gradient-283);}.cls-284{fill:url(#Dial_Gradient-284);}.cls-285{fill:url(#Dial_Gradient-285);}.cls-286{fill:url(#Dial_Gradient-286);}.cls-287{fill:url(#Dial_Gradient-287);}.cls-288{fill:url(#Dial_Gradient-288);}.cls-289{fill:url(#Dial_Gradient-289);}.cls-290{fill:url(#Dial_Gradient-290);}.cls-291{fill:url(#Dial_Gradient-291);}.cls-292{fill:url(#Dial_Gradient-292);}.cls-293{fill:url(#Dial_Gradient-293);}.cls-294{fill:url(#Dial_Gradient-294);}.cls-295{fill:url(#Dial_Gradient-295);}.cls-296{fill:url(#Dial_Gradient-296);}.cls-297{fill:url(#Dial_Gradient-297);}.cls-298{fill:url(#Dial_Gradient-298);}.cls-299{fill:url(#Dial_Gradient-299);}.cls-300{fill:url(#Dial_Gradient-300);}.cls-301{fill:url(#Dial_Gradient-301);}.cls-302{fill:url(#Dial_Gradient-302);}.cls-303{fill:url(#Dial_Gradient-303);}.cls-304{fill:url(#Dial_Gradient-304);}.cls-305{fill:url(#Dial_Gradient-305);}.cls-306{fill:url(#Dial_Gradient-306);}.cls-307{fill:url(#Dial_Gradient-307);}.cls-308{fill:url(#Dial_Gradient-308);}.cls-309{fill:url(#Dial_Gradient-309);}.cls-310{fill:url(#Dial_Gradient-310);}.cls-311{fill:url(#Dial_Gradient-311);}.cls-312{fill:url(#Dial_Gradient-312);}.cls-313{fill:url(#Dial_Gradient-313);}.cls-314{fill:url(#Dial_Gradient-314);}.cls-315{fill:url(#Dial_Gradient-315);}.cls-316{fill:url(#Dial_Gradient-316);}.cls-317{fill:url(#Dial_Gradient-317);}.cls-318{fill:url(#Dial_Gradient-318);}.cls-319{fill:url(#Dial_Gradient-319);}.cls-320{fill:url(#Dial_Gradient-320);}.cls-321{fill:url(#Dial_Gradient-321);}.cls-322{fill:url(#Dial_Gradient-322);}.cls-323{fill:url(#Dial_Gradient-323);}.cls-324{fill:url(#Dial_Gradient-324);}.cls-325{fill:url(#Dial_Gradient-325);}.cls-326{fill:url(#Dial_Gradient-326);}.cls-327{fill:url(#Dial_Gradient-327);}.cls-328{fill:url(#Dial_Gradient-328);}.cls-329{fill:url(#Dial_Gradient-329);}.cls-330{fill:url(#Dial_Gradient-330);}.cls-331{fill:url(#Dial_Gradient-331);}.cls-332{fill:url(#Dial_Gradient-332);}.cls-333{fill:url(#Dial_Gradient-333);}.cls-334{fill:url(#Dial_Gradient-334);}.cls-335{fill:url(#Dial_Gradient-335);}.cls-336{fill:url(#Dial_Gradient-336);}.cls-337{fill:url(#Dial_Gradient-337);}.cls-338{fill:url(#Dial_Gradient-338);}.cls-339{fill:url(#Dial_Gradient-339);}.cls-340{fill:url(#Dial_Gradient-340);}.cls-341{fill:url(#Dial_Gradient-341);}.cls-342{fill:url(#Dial_Gradient-342);}.cls-343{fill:url(#Dial_Gradient-343);}.cls-344{fill:url(#Dial_Gradient-344);}.cls-345{fill:url(#Dial_Gradient-345);}.cls-346{fill:url(#Dial_Gradient-346);}.cls-347{fill:url(#Dial_Gradient-347);}.cls-348{fill:url(#Dial_Gradient-348);}.cls-349{fill:url(#Dial_Gradient-349);}.cls-350{fill:url(#Dial_Gradient-350);}.cls-351{fill:url(#Dial_Gradient-351);}.cls-352{fill:url(#Dial_Gradient-352);}.cls-353{fill:url(#Dial_Gradient-353);}.cls-354{fill:url(#Dial_Gradient-354);}.cls-355{fill:url(#Dial_Gradient-355);}.cls-356{fill:url(#Dial_Gradient-356);}.cls-357{fill:url(#Dial_Gradient-357);}.cls-358{fill:url(#Dial_Gradient-358);}.cls-359{fill:url(#Dial_Gradient-359);}.cls-360{fill:url(#Dial_Gradient-360);}.cls-361{fill:url(#Dial_Gradient-361);}.cls-362{fill:url(#Dial_Gradient-362);}.cls-363{fill:url(#Dial_Gradient-363);}.cls-364{fill:url(#Dial_Gradient-364);}.cls-365{fill:url(#Dial_Gradient-365);}.cls-366{fill:url(#Dial_Gradient-366);}.cls-367{fill:url(#Dial_Gradient-367);}.cls-368{fill:url(#Dial_Gradient-368);}.cls-369{fill:url(#Dial_Gradient-369);}</style><linearGradient id="Dial_Gradient" x1="162.08" y1="1.26" x2="162.08" y2="325.76" gradientUnits="userSpaceOnUse"><stop offset="0" stop-color="#787878"/><stop offset="1" stop-color="#cbcbcb"/></linearGradient><linearGradient id="Dial_Gradient-2" x1="149.01" y1="1.26" x2="149.01" y2="325.76" xlink:href="#Dial_Gradient"/><linearGradient id="Dial_Gradient-3" x1="136" y1="1.26" x2="136" y2="325.76" xlink:href="#Dial_Gradient"/><linearGradient id="Dial_Gradient-4" x1="123.16" y1="1.26" x2="123.16" y2="325.76" xlink:href="#Dial_Gradient"/><linearGradient id="Dial_Gradient-5" x1="110.58" y1="1.26" x2="110.58" y2="325.76" xlink:href="#Dial_Gradient"/><linearGradient id="Dial_Gradient-6" x1="98.34" y1="1.26" x2="98.34" y2="325.76" xlink:href="#Dial_Gradient"/><linearGradient id="Dial_Gradient-7" x1="86.53" y1="1.26" x2="86.53" y2="325.76" xlink:href="#Dial_Gradient"/><linearGradient id="Dial_Gradient-8" x1="75.22" y1="1.26" x2="75.22" y2="325.76" xlink:href="#Dial_Gradient"/><linearGradient id="Dial_Gradient-9" x1="64.49" y1="1.26" x2="64.49" y2="325.76" xlink:href="#Dial_Gradient"/><linearGradient id="Dial_Gradient-10" x1="54.4" y1="1.26" x2="54.4" y2="325.76" xlink:href="#Dial_Gradient"/><linearGradient id="Dial_Gradient-11" x1="45.03" y1="1.26" x2="45.03" y2="325.76" xlink:href="#Dial_Gradient"/><linearGradient id="Dial_Gradient-12" x1="36.4" y1="1.26" x2="36.4" y2="325.76" xlink:href="#Dial_Gradient"/><linearGradient id="Dial_Gradient-13" x1="28.6" y1="1.26" x2="28.6" y2="325.76" xlink:href="#Dial_Gradient"/><linearGradient id="Dial_Gradient-14" x1="21.68" y1="1.26" x2="21.68" y2="325.76" xlink:href="#Dial_Gradient"/><linearGradient id="Dial_Gradient-15" x1="15.69" y1="1.26" x2="15.69" y2="325.76" xlink:href="#Dial_Gradient"/><linearGradient id="Dial_Gradient-16" x1="10.67" y1="1.26" x2="10.67" y2="325.76" xlink:href="#Dial_Gradient"/><linearGradient id="Dial_Gradient-17" x1="6.67" y1="1.26" x2="6.67" y2="325.76" xlink:href="#Dial_Gradient"/><linearGradient id="Dial_Gradient-18" x1="3.71" y1="1.26" x2="3.71" y2="325.76" xlink:href="#Dial_Gradient"/><linearGradient id="Dial_Gradient-19" x1="1.8" y1="1.26" x2="1.8" y2="325.76" xlink:href="#Dial_Gradient"/><linearGradient id="Dial_Gradient-20" x1="0.95" y1="1.26" x2="0.95" y2="325.76" xlink:href="#Dial_Gradient"/><linearGradient id="Dial_Gradient-21" x1="1.17" y1="1.26" x2="1.17" y2="325.76" xlink:href="#Dial_Gradient"/><linearGradient id="Dial_Gradient-22" x1="2.44" y1="1.26" x2="2.44" y2="325.76" xlink:href="#Dial_Gradient"/><linearGradient id="Dial_Gradient-23" x1="4.78" y1="1.26" x2="4.78" y2="325.76" xlink:href="#Dial_Gradient"/><linearGradient id="Dial_Gradient-24" x1="8.18" y1="1.26" x2="8.18" y2="325.76" xlink:href="#Dial_Gradient"/><linearGradient id="Dial_Gradient-25" x1="12.61" y1="1.26" x2="12.61" y2="325.76" xlink:href="#Dial_Gradient"/><linearGradient id="Dial_Gradient-26" x1="18.04" y1="1.26" x2="18.04" y2="325.76" xlink:href="#Dial_Gradient"/><linearGradient id="Dial_Gradient-27" x1="24.45" y1="1.26" x2="24.45" y2="325.76" xlink:href="#Dial_Gradient"/><linearGradient id="Dial_Gradient-28" x1="31.77" y1="1.26" x2="31.77" y2="325.76" xlink:href="#Dial_Gradient"/><linearGradient id="Dial_Gradient-29" x1="39.95" y1="1.26" x2="39.95" y2="325.76" xlink:href="#Dial_Gradient"/><linearGradient id="Dial_Gradient-30" x1="48.98" y1="1.26" x2="48.98" y2="325.76" xlink:href="#Dial_Gradient"/><linearGradient id="Dial_Gradient-31" x1="58.76" y1="1.26" x2="58.76" y2="325.76" xlink:href="#Dial_Gradient"/><linearGradient id="Dial_Gradient-32" x1="69.23" y1="1.26" x2="69.23" y2="325.76" xlink:href="#Dial_Gradient"/><linearGradient id="Dial_Gradient-33" x1="80.31" y1="1.26" x2="80.31" y2="325.76" xlink:href="#Dial_Gradient"/><linearGradient id="Dial_Gradient-34" x1="91.95" y1="1.26" x2="91.95" y2="325.76" xlink:href="#Dial_Gradient"/><linearGradient id="Dial_Gradient-35" x1="104.06" y1="1.26" x2="104.06" y2="325.76" xlink:href="#Dial_Gradient"/><linearGradient id="Dial_Gradient-36" x1="116.56" y1="1.26" x2="116.56" y2="325.76" xlink:href="#Dial_Gradient"/><linearGradient id="Dial_Gradient-37" x1="129.37" y1="1.26" x2="129.37" y2="325.76" xlink:href="#Dial_Gradient"/><linearGradient id="Dial_Gradient-38" x1="142.4" y1="1.26" x2="142.4" y2="325.76" xlink:href="#Dial_Gradient"/><linearGradient id="Dial_Gradient-39" x1="155.56" y1="1.26" x2="155.56" y2="325.76" xlink:href="#Dial_Gradient"/><linearGradient id="Dial_Gradient-40" x1="168.77" y1="1.26" x2="168.77" y2="325.76" xlink:href="#Dial_Gradient"/><linearGradient id="Dial_Gradient-41" x1="181.94" y1="1.26" x2="181.94" y2="325.76" xlink:href="#Dial_Gradient"/><linearGradient id="Dial_Gradient-42" x1="194.98" y1="1.26" x2="194.98" y2="325.76" xlink:href="#Dial_Gradient"/><linearGradient id="Dial_Gradient-43" x1="207.79" y1="1.26" x2="207.79" y2="325.76" xlink:href="#Dial_Gradient"/><linearGradient id="Dial_Gradient-44" x1="220.29" y1="1.26" x2="220.29" y2="325.76" xlink:href="#Dial_Gradient"/><linearGradient id="Dial_Gradient-45" x1="232.39" y1="1.26" x2="232.39" y2="325.76" xlink:href="#Dial_Gradient"/><linearGradient id="Dial_Gradient-46" x1="244.03" y1="1.26" x2="244.03" y2="325.76" xlink:href="#Dial_Gradient"/><linearGradient id="Dial_Gradient-47" x1="255.1" y1="1.26" x2="255.1" y2="325.76" xlink:href="#Dial_Gradient"/><linearGradient id="Dial_Gradient-48" x1="265.56" y1="1.26" x2="265.56" y2="325.76" xlink:href="#Dial_Gradient"/><linearGradient id="Dial_Gradient-49" x1="275.33" y1="1.26" x2="275.33" y2="325.76" xlink:href="#Dial_Gradient"/><linearGradient id="Dial_Gradient-50" x1="284.34" y1="1.26" x2="284.34" y2="325.76" xlink:href="#Dial_Gradient"/><linearGradient id="Dial_Gradient-51" x1="292.53" y1="1.26" x2="292.53" y2="325.76" xlink:href="#Dial_Gradient"/><linearGradient id="Dial_Gradient-52" x1="299.84" y1="1.26" x2="299.84" y2="325.76" xlink:href="#Dial_Gradient"/><linearGradient id="Dial_Gradient-53" x1="306.23" y1="1.26" x2="306.23" y2="325.76" xlink:href="#Dial_Gradient"/><linearGradient id="Dial_Gradient-54" x1="311.65" y1="1.26" x2="311.65" y2="325.76" xlink:href="#Dial_Gradient"/><linearGradient id="Dial_Gradient-55" x1="316.07" y1="1.26" x2="316.07" y2="325.76" xlink:href="#Dial_Gradient"/><linearGradient id="Dial_Gradient-56" x1="319.45" y1="1.26" x2="319.45" y2="325.76" xlink:href="#Dial_Gradient"/><linearGradient id="Dial_Gradient-57" x1="321.78" y1="1.26" x2="321.78" y2="325.76" xlink:href="#Dial_Gradient"/><linearGradient id="Dial_Gradient-58" x1="323.05" y1="1.26" x2="323.05" y2="325.76" xlink:href="#Dial_Gradient"/><linearGradient id="Dial_Gradient-59" x1="323.25" y1="1.26" x2="323.25" y2="325.76" xlink:href="#Dial_Gradient"/><linearGradient id="Dial_Gradient-60" x1="322.4" y1="1.26" x2="322.4" y2="325.76" xlink:href="#Dial_Gradient"/><linearGradient id="Dial_Gradient-61" x1="320.49" y1="1.26" x2="320.49" y2="325.76" xlink:href="#Dial_Gradient"/><linearGradient id="Dial_Gradient-62" x1="317.51" y1="1.26" x2="317.51" y2="325.76" xlink:href="#Dial_Gradient"/><linearGradient id="Dial_Gradient-63" x1="313.5" y1="1.26" x2="313.5" y2="325.76" xlink:href="#Dial_Gradient"/><linearGradient id="Dial_Gradient-64" x1="308.48" y1="1.26" x2="308.48" y2="325.76" xlink:href="#Dial_Gradient"/><linearGradient id="Dial_Gradient-65" x1="302.48" y1="1.26" x2="302.48" y2="325.76" xlink:href="#Dial_Gradient"/><linearGradient id="Dial_Gradient-66" x1="295.55" y1="1.26" x2="295.55" y2="325.76" xlink:href="#Dial_Gradient"/><linearGradient id="Dial_Gradient-67" x1="287.75" y1="1.26" x2="287.75" y2="325.76" xlink:href="#Dial_Gradient"/><linearGradient id="Dial_Gradient-68" x1="279.12" y1="1.26" x2="279.12" y2="325.76" xlink:href="#Dial_Gradient"/><linearGradient id="Dial_Gradient-69" x1="269.74" y1="1.26" x2="269.74" y2="325.76" xlink:href="#Dial_Gradient"/><linearGradient id="Dial_Gradient-70" x1="259.65" y1="1.26" x2="259.65" y2="325.76" xlink:href="#Dial_Gradient"/><linearGradient id="Dial_Gradient-71" x1="248.91" y1="1.26" x2="248.91" y2="325.76" xlink:href="#Dial_Gradient"/><linearGradient id="Dial_Gradient-72" x1="237.6" y1="1.26" x2="237.6" y2="325.76" xlink:href="#Dial_Gradient"/><linearGradient id="Dial_Gradient-73" x1="225.79" y1="1.26" x2="225.79" y2="325.76" xlink:href="#Dial_Gradient"/><linearGradient id="Dial_Gradient-74" x1="213.55" y1="1.26" x2="213.55" y2="325.76" xlink:href="#Dial_Gradient"/><linearGradient id="Dial_Gradient-75" x1="200.98" y1="1.26" x2="200.98" y2="325.76" xlink:href="#Dial_Gradient"/><linearGradient id="Dial_Gradient-76" x1="188.14" y1="1.26" x2="188.14" y2="325.76" xlink:href="#Dial_Gradient"/><linearGradient id="Dial_Gradient-77" x1="175.14" y1="1.26" x2="175.14" y2="325.76" xlink:href="#Dial_Gradient"/><linearGradient id="Dial_Gradient-78" x1="162.08" y1="20.01" x2="162.08" y2="307" xlink:href="#Dial_Gradient"/><linearGradient id="Dial_Gradient-79" x1="149.02" y1="20.01" x2="149.02" y2="307" xlink:href="#Dial_Gradient"/><linearGradient id="Dial_Gradient-80" x1="136.03" y1="20.01" x2="136.03" y2="307" xlink:href="#Dial_Gradient"/><linearGradient id="Dial_Gradient-81" x1="123.27" y1="20.01" x2="123.27" y2="307" xlink:href="#Dial_Gradient"/><linearGradient id="Dial_Gradient-82" x1="110.83" y1="20.01" x2="110.83" y2="307" xlink:href="#Dial_Gradient"/><linearGradient id="Dial_Gradient-83" x1="98.84" y1="20.01" x2="98.84" y2="307" xlink:href="#Dial_Gradient"/><linearGradient id="Dial_Gradient-84" x1="87.39" y1="20.01" x2="87.39" y2="307" xlink:href="#Dial_Gradient"/><linearGradient id="Dial_Gradient-85" x1="76.57" y1="20.01" x2="76.57" y2="307" xlink:href="#Dial_Gradient"/><linearGradient id="Dial_Gradient-86" x1="66.47" y1="20.01" x2="66.47" y2="307" xlink:href="#Dial_Gradient"/><linearGradient id="Dial_Gradient-87" x1="57.19" y1="20.01" x2="57.19" y2="307" xlink:href="#Dial_Gradient"/><linearGradient id="Dial_Gradient-88" x1="48.76" y1="20.01" x2="48.76" y2="307" xlink:href="#Dial_Gradient"/><linearGradient id="Dial_Gradient-89" x1="41.29" y1="20.01" x2="41.29" y2="307" xlink:href="#Dial_Gradient"/><linearGradient id="Dial_Gradient-90" x1="34.84" y1="20.01" x2="34.84" y2="307" xlink:href="#Dial_Gradient"/><linearGradient id="Dial_Gradient-91" x1="29.47" y1="20.01" x2="29.47" y2="307" xlink:href="#Dial_Gradient"/><linearGradient id="Dial_Gradient-92" x1="25.24" y1="20.01" x2="25.24" y2="307" xlink:href="#Dial_Gradient"/><linearGradient id="Dial_Gradient-93" x1="22.18" y1="20.01" x2="22.18" y2="307" xlink:href="#Dial_Gradient"/><linearGradient id="Dial_Gradient-94" x1="20.32" y1="20.01" x2="20.32" y2="307" xlink:href="#Dial_Gradient"/><linearGradient id="Dial_Gradient-95" x1="19.66" y1="20.01" x2="19.66" y2="307" xlink:href="#Dial_Gradient"/><linearGradient id="Dial_Gradient-96" x1="20.2" y1="20.01" x2="20.2" y2="307" xlink:href="#Dial_Gradient"/><linearGradient id="Dial_Gradient-97" x1="21.95" y1="20.01" x2="21.95" y2="307" xlink:href="#Dial_Gradient"/><linearGradient id="Dial_Gradient-98" x1="24.9" y1="20.01" x2="24.9" y2="307" xlink:href="#Dial_Gradient"/><linearGradient id="Dial_Gradient-99" x1="29.03" y1="20.01" x2="29.03" y2="307" xlink:href="#Dial_Gradient"/><linearGradient id="Dial_Gradient-100" x1="34.31" y1="20.01" x2="34.31" y2="307" xlink:href="#Dial_Gradient"/><linearGradient id="Dial_Gradient-101" x1="40.69" y1="20.01" x2="40.69" y2="307" xlink:href="#Dial_Gradient"/><linearGradient id="Dial_Gradient-102" x1="48.11" y1="20.01" x2="48.11" y2="307" xlink:href="#Dial_Gradient"/><linearGradient id="Dial_Gradient-103" x1="56.51" y1="20.01" x2="56.51" y2="307" xlink:href="#Dial_Gradient"/><linearGradient id="Dial_Gradient-104" x1="65.84" y1="20.01" x2="65.84" y2="307" xlink:href="#Dial_Gradient"/><linearGradient id="Dial_Gradient-105" x1="75.98" y1="20.01" x2="75.98" y2="307" xlink:href="#Dial_Gradient"/><linearGradient id="Dial_Gradient-106" x1="86.86" y1="20.01" x2="86.86" y2="307" xlink:href="#Dial_Gradient"/><linearGradient id="Dial_Gradient-107" x1="98.39" y1="20.01" x2="98.39" y2="307" xlink:href="#Dial_Gradient"/><linearGradient id="Dial_Gradient-108" x1="110.47" y1="20.01" x2="110.47" y2="307" xlink:href="#Dial_Gradient"/><linearGradient id="Dial_Gradient-109" x1="122.99" y1="20.01" x2="122.99" y2="307" xlink:href="#Dial_Gradient"/><linearGradient id="Dial_Gradient-110" x1="135.86" y1="20.01" x2="135.86" y2="307" xlink:href="#Dial_Gradient"/><linearGradient id="Dial_Gradient-111" x1="148.95" y1="20.01" x2="148.95" y2="307" xlink:href="#Dial_Gradient"/><linearGradient id="Dial_Gradient-112" x1="162.13" y1="20.01" x2="162.13" y2="307" xlink:href="#Dial_Gradient"/><linearGradient id="Dial_Gradient-113" x1="175.32" y1="20.01" x2="175.32" y2="307" xlink:href="#Dial_Gradient"/><linearGradient id="Dial_Gradient-114" x1="188.42" y1="20.01" x2="188.42" y2="307" xlink:href="#Dial_Gradient"/><linearGradient id="Dial_Gradient-115" x1="201.29" y1="20.01" x2="201.29" y2="307" xlink:href="#Dial_Gradient"/><linearGradient id="Dial_Gradient-116" x1="213.81" y1="20.01" x2="213.81" y2="307" xlink:href="#Dial_Gradient"/><linearGradient id="Dial_Gradient-117" x1="225.89" y1="20.01" x2="225.89" y2="307" xlink:href="#Dial_Gradient"/><linearGradient id="Dial_Gradient-118" x1="237.41" y1="20.01" x2="237.41" y2="307" xlink:href="#Dial_Gradient"/><linearGradient id="Dial_Gradient-119" x1="248.29" y1="20.01" x2="248.29" y2="307" xlink:href="#Dial_Gradient"/><linearGradient id="Dial_Gradient-120" x1="258.43" y1="20.01" x2="258.43" y2="307" xlink:href="#Dial_Gradient"/><linearGradient id="Dial_Gradient-121" x1="267.75" y1="20.01" x2="267.75" y2="307" xlink:href="#Dial_Gradient"/><linearGradient id="Dial_Gradient-122" x1="276.14" y1="20.01" x2="276.14" y2="307" xlink:href="#Dial_Gradient"/><linearGradient id="Dial_Gradient-123" x1="283.55" y1="20.01" x2="283.55" y2="307" xlink:href="#Dial_Gradient"/><linearGradient id="Dial_Gradient-124" x1="289.92" y1="20.01" x2="289.92" y2="307" xlink:href="#Dial_Gradient"/><linearGradient id="Dial_Gradient-125" x1="295.2" y1="20.01" x2="295.2" y2="307" xlink:href="#Dial_Gradient"/><linearGradient id="Dial_Gradient-126" x1="299.32" y1="20.01" x2="299.32" y2="307" xlink:href="#Dial_Gradient"/><linearGradient id="Dial_Gradient-127" x1="302.26" y1="20.01" x2="302.26" y2="307" xlink:href="#Dial_Gradient"/><linearGradient id="Dial_Gradient-128" x1="304.01" y1="20.01" x2="304.01" y2="307" xlink:href="#Dial_Gradient"/><linearGradient id="Dial_Gradient-129" x1="304.54" y1="20.01" x2="304.54" y2="307" xlink:href="#Dial_Gradient"/><linearGradient id="Dial_Gradient-130" x1="303.88" y1="20.01" x2="303.88" y2="307" xlink:href="#Dial_Gradient"/><linearGradient id="Dial_Gradient-131" x1="302.01" y1="20.01" x2="302.01" y2="307" xlink:href="#Dial_Gradient"/><linearGradient id="Dial_Gradient-132" x1="298.95" y1="20.01" x2="298.95" y2="307" xlink:href="#Dial_Gradient"/><linearGradient id="Dial_Gradient-133" x1="294.71" y1="20.01" x2="294.71" y2="307" xlink:href="#Dial_Gradient"/><linearGradient id="Dial_Gradient-134" x1="289.34" y1="20.01" x2="289.34" y2="307" xlink:href="#Dial_Gradient"/><linearGradient id="Dial_Gradient-135" x1="282.88" y1="20.01" x2="282.88" y2="307" xlink:href="#Dial_Gradient"/><linearGradient id="Dial_Gradient-136" x1="275.4" y1="20.01" x2="275.4" y2="307" xlink:href="#Dial_Gradient"/><linearGradient id="Dial_Gradient-137" x1="266.97" y1="20.01" x2="266.97" y2="307" xlink:href="#Dial_Gradient"/><linearGradient id="Dial_Gradient-138" x1="257.68" y1="20.01" x2="257.68" y2="307" xlink:href="#Dial_Gradient"/><linearGradient id="Dial_Gradient-139" x1="247.58" y1="20.01" x2="247.58" y2="307" xlink:href="#Dial_Gradient"/><linearGradient id="Dial_Gradient-140" x1="236.76" y1="20.01" x2="236.76" y2="307" xlink:href="#Dial_Gradient"/><linearGradient id="Dial_Gradient-141" x1="225.3" y1="20.01" x2="225.3" y2="307" xlink:href="#Dial_Gradient"/><linearGradient id="Dial_Gradient-142" x1="213.31" y1="20.01" x2="213.31" y2="307" xlink:href="#Dial_Gradient"/><linearGradient id="Dial_Gradient-143" x1="200.88" y1="20.01" x2="200.88" y2="307" xlink:href="#Dial_Gradient"/><linearGradient id="Dial_Gradient-144" x1="188.12" y1="20.01" x2="188.12" y2="307" xlink:href="#Dial_Gradient"/><linearGradient id="Dial_Gradient-145" x1="175.14" y1="20.01" x2="175.14" y2="307" xlink:href="#Dial_Gradient"/><linearGradient id="Dial_Gradient-146" x1="162.08" y1="38.77" x2="162.08" y2="288.24" xlink:href="#Dial_Gradient"/><linearGradient id="Dial_Gradient-147" x1="149.02" y1="38.77" x2="149.02" y2="288.24" xlink:href="#Dial_Gradient"/><linearGradient id="Dial_Gradient-148" x1="136.08" y1="38.77" x2="136.08" y2="288.24" xlink:href="#Dial_Gradient"/><linearGradient id="Dial_Gradient-149" x1="123.43" y1="38.77" x2="123.43" y2="288.24" xlink:href="#Dial_Gradient"/><linearGradient id="Dial_Gradient-150" x1="111.21" y1="38.77" x2="111.21" y2="288.24" xlink:href="#Dial_Gradient"/><linearGradient id="Dial_Gradient-151" x1="99.58" y1="38.77" x2="99.58" y2="288.24" xlink:href="#Dial_Gradient"/><linearGradient id="Dial_Gradient-152" x1="88.65" y1="38.77" x2="88.65" y2="288.24" xlink:href="#Dial_Gradient"/><linearGradient id="Dial_Gradient-153" x1="78.54" y1="38.77" x2="78.54" y2="288.24" xlink:href="#Dial_Gradient"/><linearGradient id="Dial_Gradient-154" x1="69.37" y1="38.77" x2="69.37" y2="288.24" xlink:href="#Dial_Gradient"/><linearGradient id="Dial_Gradient-155" x1="61.21" y1="38.77" x2="61.21" y2="288.24" xlink:href="#Dial_Gradient"/><linearGradient id="Dial_Gradient-156" x1="54.18" y1="38.77" x2="54.18" y2="288.24" xlink:href="#Dial_Gradient"/><linearGradient id="Dial_Gradient-157" x1="48.36" y1="38.77" x2="48.36" y2="288.24" xlink:href="#Dial_Gradient"/><linearGradient id="Dial_Gradient-158" x1="43.84" y1="38.77" x2="43.84" y2="288.24" xlink:href="#Dial_Gradient"/><linearGradient id="Dial_Gradient-159" x1="40.66" y1="38.77" x2="40.66" y2="288.24" xlink:href="#Dial_Gradient"/><linearGradient id="Dial_Gradient-160" x1="38.86" y1="38.77" x2="38.86" y2="288.24" xlink:href="#Dial_Gradient"/><linearGradient id="Dial_Gradient-161" x1="38.45" y1="38.77" x2="38.45" y2="288.24" xlink:href="#Dial_Gradient"/><linearGradient id="Dial_Gradient-162" x1="39.42" y1="38.77" x2="39.42" y2="288.24" xlink:href="#Dial_Gradient"/><linearGradient id="Dial_Gradient-163" x1="41.78" y1="38.77" x2="41.78" y2="288.24" xlink:href="#Dial_Gradient"/><linearGradient id="Dial_Gradient-164" x1="45.52" y1="38.77" x2="45.52" y2="288.24" xlink:href="#Dial_Gradient"/><linearGradient id="Dial_Gradient-165" x1="50.6" y1="38.77" x2="50.6" y2="288.24" xlink:href="#Dial_Gradient"/><linearGradient id="Dial_Gradient-166" x1="56.95" y1="38.77" x2="56.95" y2="288.24" xlink:href="#Dial_Gradient"/><linearGradient id="Dial_Gradient-167" x1="64.5" y1="38.77" x2="64.5" y2="288.24" xlink:href="#Dial_Gradient"/><linearGradient id="Dial_Gradient-168" x1="73.17" y1="38.77" x2="73.17" y2="288.24" xlink:href="#Dial_Gradient"/><linearGradient id="Dial_Gradient-169" x1="82.87" y1="38.77" x2="82.87" y2="288.24" xlink:href="#Dial_Gradient"/><linearGradient id="Dial_Gradient-170" x1="93.47" y1="38.77" x2="93.47" y2="288.24" xlink:href="#Dial_Gradient"/><linearGradient id="Dial_Gradient-171" x1="104.85" y1="38.77" x2="104.85" y2="288.24" xlink:href="#Dial_Gradient"/><linearGradient id="Dial_Gradient-172" x1="116.88" y1="38.77" x2="116.88" y2="288.24" xlink:href="#Dial_Gradient"/><linearGradient id="Dial_Gradient-173" x1="129.44" y1="38.77" x2="129.44" y2="288.24" xlink:href="#Dial_Gradient"/><linearGradient id="Dial_Gradient-174" x1="142.38" y1="38.77" x2="142.38" y2="288.24" xlink:href="#Dial_Gradient"/><linearGradient id="Dial_Gradient-175" x1="155.54" y1="38.77" x2="155.54" y2="288.24" xlink:href="#Dial_Gradient"/><linearGradient id="Dial_Gradient-176" x1="168.78" y1="38.77" x2="168.78" y2="288.24" xlink:href="#Dial_Gradient"/><linearGradient id="Dial_Gradient-177" x1="181.95" y1="38.77" x2="181.95" y2="288.24" xlink:href="#Dial_Gradient"/><linearGradient id="Dial_Gradient-178" x1="194.89" y1="38.77" x2="194.89" y2="288.24" xlink:href="#Dial_Gradient"/><linearGradient id="Dial_Gradient-179" x1="207.45" y1="38.77" x2="207.45" y2="288.24" xlink:href="#Dial_Gradient"/><linearGradient id="Dial_Gradient-180" x1="219.48" y1="38.77" x2="219.48" y2="288.24" xlink:href="#Dial_Gradient"/><linearGradient id="Dial_Gradient-181" x1="230.85" y1="38.77" x2="230.85" y2="288.24" xlink:href="#Dial_Gradient"/><linearGradient id="Dial_Gradient-182" x1="241.44" y1="38.77" x2="241.44" y2="288.24" xlink:href="#Dial_Gradient"/><linearGradient id="Dial_Gradient-183" x1="251.13" y1="38.77" x2="251.13" y2="288.24" xlink:href="#Dial_Gradient"/><linearGradient id="Dial_Gradient-184" x1="259.78" y1="38.77" x2="259.78" y2="288.24" xlink:href="#Dial_Gradient"/><linearGradient id="Dial_Gradient-185" x1="267.32" y1="38.77" x2="267.32" y2="288.24" xlink:href="#Dial_Gradient"/><linearGradient id="Dial_Gradient-186" x1="273.66" y1="38.77" x2="273.66" y2="288.24" xlink:href="#Dial_Gradient"/><linearGradient id="Dial_Gradient-187" x1="278.72" y1="38.77" x2="278.72" y2="288.24" xlink:href="#Dial_Gradient"/><linearGradient id="Dial_Gradient-188" x1="282.45" y1="38.77" x2="282.45" y2="288.24" xlink:href="#Dial_Gradient"/><linearGradient id="Dial_Gradient-189" x1="284.8" y1="38.77" x2="284.8" y2="288.24" xlink:href="#Dial_Gradient"/><linearGradient id="Dial_Gradient-190" x1="285.76" y1="38.77" x2="285.76" y2="288.24" xlink:href="#Dial_Gradient"/><linearGradient id="Dial_Gradient-191" x1="285.34" y1="38.77" x2="285.34" y2="288.24" xlink:href="#Dial_Gradient"/><linearGradient id="Dial_Gradient-192" x1="283.52" y1="38.77" x2="283.52" y2="288.24" xlink:href="#Dial_Gradient"/><linearGradient id="Dial_Gradient-193" x1="280.33" y1="38.77" x2="280.33" y2="288.24" xlink:href="#Dial_Gradient"/><linearGradient id="Dial_Gradient-194" x1="275.8" y1="38.77" x2="275.8" y2="288.24" xlink:href="#Dial_Gradient"/><linearGradient id="Dial_Gradient-195" x1="269.97" y1="38.77" x2="269.97" y2="288.24" xlink:href="#Dial_Gradient"/><linearGradient id="Dial_Gradient-196" x1="262.93" y1="38.77" x2="262.93" y2="288.24" xlink:href="#Dial_Gradient"/><linearGradient id="Dial_Gradient-197" x1="254.76" y1="38.77" x2="254.76" y2="288.24" xlink:href="#Dial_Gradient"/><linearGradient id="Dial_Gradient-198" x1="245.58" y1="38.77" x2="245.58" y2="288.24" xlink:href="#Dial_Gradient"/><linearGradient id="Dial_Gradient-199" x1="235.47" y1="38.77" x2="235.47" y2="288.24" xlink:href="#Dial_Gradient"/><linearGradient id="Dial_Gradient-200" x1="224.53" y1="38.77" x2="224.53" y2="288.24" xlink:href="#Dial_Gradient"/><linearGradient id="Dial_Gradient-201" x1="212.89" y1="38.77" x2="212.89" y2="288.24" xlink:href="#Dial_Gradient"/><linearGradient id="Dial_Gradient-202" x1="200.68" y1="38.77" x2="200.68" y2="288.24" xlink:href="#Dial_Gradient"/><linearGradient id="Dial_Gradient-203" x1="188.03" y1="38.77" x2="188.03" y2="288.24" xlink:href="#Dial_Gradient"/><linearGradient id="Dial_Gradient-204" x1="175.09" y1="38.77" x2="175.09" y2="288.24" xlink:href="#Dial_Gradient"/><linearGradient id="Dial_Gradient-205" x1="162.08" y1="57.53" x2="162.08" y2="269.48" xlink:href="#Dial_Gradient"/><linearGradient id="Dial_Gradient-206" x1="149.03" y1="57.53" x2="149.03" y2="269.48" xlink:href="#Dial_Gradient"/><linearGradient id="Dial_Gradient-207" x1="136.15" y1="57.53" x2="136.15" y2="269.48" xlink:href="#Dial_Gradient"/><linearGradient id="Dial_Gradient-208" x1="123.68" y1="57.53" x2="123.68" y2="269.48" xlink:href="#Dial_Gradient"/><linearGradient id="Dial_Gradient-209" x1="111.81" y1="57.53" x2="111.81" y2="269.48" xlink:href="#Dial_Gradient"/><linearGradient id="Dial_Gradient-210" x1="100.73" y1="57.53" x2="100.73" y2="269.48" xlink:href="#Dial_Gradient"/><linearGradient id="Dial_Gradient-211" x1="90.62" y1="57.53" x2="90.62" y2="269.48" xlink:href="#Dial_Gradient"/><linearGradient id="Dial_Gradient-212" x1="81.6" y1="57.53" x2="81.6" y2="269.48" xlink:href="#Dial_Gradient"/><linearGradient id="Dial_Gradient-213" x1="73.81" y1="57.53" x2="73.81" y2="269.48" xlink:href="#Dial_Gradient"/><linearGradient id="Dial_Gradient-214" x1="67.4" y1="57.53" x2="67.4" y2="269.48" xlink:href="#Dial_Gradient"/><linearGradient id="Dial_Gradient-215" x1="62.48" y1="57.53" x2="62.48" y2="269.48" xlink:href="#Dial_Gradient"/><linearGradient id="Dial_Gradient-216" x1="59.14" y1="57.53" x2="59.14" y2="269.48" xlink:href="#Dial_Gradient"/><linearGradient id="Dial_Gradient-217" x1="57.42" y1="57.53" x2="57.42" y2="269.48" xlink:href="#Dial_Gradient"/><linearGradient id="Dial_Gradient-218" x1="57.34" y1="57.53" x2="57.34" y2="269.48" xlink:href="#Dial_Gradient"/><linearGradient id="Dial_Gradient-219" x1="58.9" y1="57.53" x2="58.9" y2="269.48" xlink:href="#Dial_Gradient"/><linearGradient id="Dial_Gradient-220" x1="62.1" y1="57.53" x2="62.1" y2="269.48" xlink:href="#Dial_Gradient"/><linearGradient id="Dial_Gradient-221" x1="66.9" y1="57.53" x2="66.9" y2="269.48" xlink:href="#Dial_Gradient"/><linearGradient id="Dial_Gradient-222" x1="73.21" y1="57.53" x2="73.21" y2="269.48" xlink:href="#Dial_Gradient"/><linearGradient id="Dial_Gradient-223" x1="80.93" y1="57.53" x2="80.93" y2="269.48" xlink:href="#Dial_Gradient"/><linearGradient id="Dial_Gradient-224" x1="89.97" y1="57.53" x2="89.97" y2="269.48" xlink:href="#Dial_Gradient"/><linearGradient id="Dial_Gradient-225" x1="100.15" y1="57.53" x2="100.15" y2="269.48" xlink:href="#Dial_Gradient"/><linearGradient id="Dial_Gradient-226" x1="111.32" y1="57.53" x2="111.32" y2="269.48" xlink:href="#Dial_Gradient"/><linearGradient id="Dial_Gradient-227" x1="123.3" y1="57.53" x2="123.3" y2="269.48" xlink:href="#Dial_Gradient"/><linearGradient id="Dial_Gradient-228" x1="135.9" y1="57.53" x2="135.9" y2="269.48" xlink:href="#Dial_Gradient"/><linearGradient id="Dial_Gradient-229" x1="148.92" y1="57.53" x2="148.92" y2="269.48" xlink:href="#Dial_Gradient"/><linearGradient id="Dial_Gradient-230" x1="162.12" y1="57.53" x2="162.12" y2="269.48" xlink:href="#Dial_Gradient"/><linearGradient id="Dial_Gradient-231" x1="175.34" y1="57.53" x2="175.34" y2="269.48" xlink:href="#Dial_Gradient"/><linearGradient id="Dial_Gradient-232" x1="188.37" y1="57.53" x2="188.37" y2="269.48" xlink:href="#Dial_Gradient"/><linearGradient id="Dial_Gradient-233" x1="200.98" y1="57.53" x2="200.98" y2="269.48" xlink:href="#Dial_Gradient"/><linearGradient id="Dial_Gradient-234" x1="212.95" y1="57.53" x2="212.95" y2="269.48" xlink:href="#Dial_Gradient"/><linearGradient id="Dial_Gradient-235" x1="224.11" y1="57.53" x2="224.11" y2="269.48" xlink:href="#Dial_Gradient"/><linearGradient id="Dial_Gradient-236" x1="234.29" y1="57.53" x2="234.29" y2="269.48" xlink:href="#Dial_Gradient"/><linearGradient id="Dial_Gradient-237" x1="243.32" y1="57.53" x2="243.32" y2="269.48" xlink:href="#Dial_Gradient"/><linearGradient id="Dial_Gradient-238" x1="251.03" y1="57.53" x2="251.03" y2="269.48" xlink:href="#Dial_Gradient"/><linearGradient id="Dial_Gradient-239" x1="257.34" y1="57.53" x2="257.34" y2="269.48" xlink:href="#Dial_Gradient"/><linearGradient id="Dial_Gradient-240" x1="262.12" y1="57.53" x2="262.12" y2="269.48" xlink:href="#Dial_Gradient"/><linearGradient id="Dial_Gradient-241" x1="265.31" y1="57.53" x2="265.31" y2="269.48" xlink:href="#Dial_Gradient"/><linearGradient id="Dial_Gradient-242" x1="266.86" y1="57.53" x2="266.86" y2="269.48" xlink:href="#Dial_Gradient"/><linearGradient id="Dial_Gradient-243" x1="266.78" y1="57.53" x2="266.78" y2="269.48" xlink:href="#Dial_Gradient"/><linearGradient id="Dial_Gradient-244" x1="265.06" y1="57.53" x2="265.06" y2="269.48" xlink:href="#Dial_Gradient"/><linearGradient id="Dial_Gradient-245" x1="261.7" y1="57.53" x2="261.7" y2="269.48" xlink:href="#Dial_Gradient"/><linearGradient id="Dial_Gradient-246" x1="256.78" y1="57.53" x2="256.78" y2="269.48" xlink:href="#Dial_Gradient"/><linearGradient id="Dial_Gradient-247" x1="250.36" y1="57.53" x2="250.36" y2="269.48" xlink:href="#Dial_Gradient"/><linearGradient id="Dial_Gradient-248" x1="242.56" y1="57.53" x2="242.56" y2="269.48" xlink:href="#Dial_Gradient"/><linearGradient id="Dial_Gradient-249" x1="233.55" y1="57.53" x2="233.55" y2="269.48" xlink:href="#Dial_Gradient"/><linearGradient id="Dial_Gradient-250" x1="223.42" y1="57.53" x2="223.42" y2="269.48" xlink:href="#Dial_Gradient"/><linearGradient id="Dial_Gradient-251" x1="212.34" y1="57.53" x2="212.34" y2="269.48" xlink:href="#Dial_Gradient"/><linearGradient id="Dial_Gradient-252" x1="200.47" y1="57.53" x2="200.47" y2="269.48" xlink:href="#Dial_Gradient"/><linearGradient id="Dial_Gradient-253" x1="188.01" y1="57.53" x2="188.01" y2="269.48" xlink:href="#Dial_Gradient"/><linearGradient id="Dial_Gradient-254" x1="175.13" y1="57.53" x2="175.13" y2="269.48" xlink:href="#Dial_Gradient"/><linearGradient id="Dial_Gradient-255" x1="162.08" y1="76.29" x2="162.08" y2="250.72" xlink:href="#Dial_Gradient"/><linearGradient id="Dial_Gradient-256" x1="149.05" y1="76.29" x2="149.05" y2="250.72" xlink:href="#Dial_Gradient"/><linearGradient id="Dial_Gradient-257" x1="136.29" y1="76.29" x2="136.29" y2="250.72" xlink:href="#Dial_Gradient"/><linearGradient id="Dial_Gradient-258" x1="124.14" y1="76.29" x2="124.14" y2="250.72" xlink:href="#Dial_Gradient"/><linearGradient id="Dial_Gradient-259" x1="112.85" y1="76.29" x2="112.85" y2="250.72" xlink:href="#Dial_Gradient"/><linearGradient id="Dial_Gradient-260" x1="102.7" y1="76.29" x2="102.7" y2="250.72" xlink:href="#Dial_Gradient"/><linearGradient id="Dial_Gradient-261" x1="93.91" y1="76.29" x2="93.91" y2="250.72" xlink:href="#Dial_Gradient"/><linearGradient id="Dial_Gradient-262" x1="86.67" y1="76.29" x2="86.67" y2="250.72" xlink:href="#Dial_Gradient"/><linearGradient id="Dial_Gradient-263" x1="81.2" y1="76.29" x2="81.2" y2="250.72" xlink:href="#Dial_Gradient"/><linearGradient id="Dial_Gradient-264" x1="77.62" y1="76.29" x2="77.62" y2="250.72" xlink:href="#Dial_Gradient"/><linearGradient id="Dial_Gradient-265" x1="76.02" y1="76.29" x2="76.02" y2="250.72" xlink:href="#Dial_Gradient"/><linearGradient id="Dial_Gradient-266" x1="76.42" y1="76.29" x2="76.42" y2="250.72" xlink:href="#Dial_Gradient"/><linearGradient id="Dial_Gradient-267" x1="78.83" y1="76.29" x2="78.83" y2="250.72" xlink:href="#Dial_Gradient"/><linearGradient id="Dial_Gradient-268" x1="83.22" y1="76.29" x2="83.22" y2="250.72" xlink:href="#Dial_Gradient"/><linearGradient id="Dial_Gradient-269" x1="89.47" y1="76.29" x2="89.47" y2="250.72" xlink:href="#Dial_Gradient"/><linearGradient id="Dial_Gradient-270" x1="97.44" y1="76.29" x2="97.44" y2="250.72" xlink:href="#Dial_Gradient"/><linearGradient id="Dial_Gradient-271" x1="106.97" y1="76.29" x2="106.97" y2="250.72" xlink:href="#Dial_Gradient"/><linearGradient id="Dial_Gradient-272" x1="117.79" y1="76.29" x2="117.79" y2="250.72" xlink:href="#Dial_Gradient"/><linearGradient id="Dial_Gradient-273" x1="129.68" y1="76.29" x2="129.68" y2="250.72" xlink:href="#Dial_Gradient"/><linearGradient id="Dial_Gradient-274" x1="142.36" y1="76.29" x2="142.36" y2="250.72" xlink:href="#Dial_Gradient"/><linearGradient id="Dial_Gradient-275" x1="155.5" y1="76.29" x2="155.5" y2="250.72" xlink:href="#Dial_Gradient"/><linearGradient id="Dial_Gradient-276" x1="168.79" y1="76.29" x2="168.79" y2="250.72" xlink:href="#Dial_Gradient"/><linearGradient id="Dial_Gradient-277" x1="181.95" y1="76.29" x2="181.95" y2="250.72" xlink:href="#Dial_Gradient"/><linearGradient id="Dial_Gradient-278" x1="194.62" y1="76.29" x2="194.62" y2="250.72" xlink:href="#Dial_Gradient"/><linearGradient id="Dial_Gradient-279" x1="206.5" y1="76.29" x2="206.5" y2="250.72" xlink:href="#Dial_Gradient"/><linearGradient id="Dial_Gradient-280" x1="217.32" y1="76.29" x2="217.32" y2="250.72" xlink:href="#Dial_Gradient"/><linearGradient id="Dial_Gradient-281" x1="226.83" y1="76.29" x2="226.83" y2="250.72" xlink:href="#Dial_Gradient"/><linearGradient id="Dial_Gradient-282" x1="234.79" y1="76.29" x2="234.79" y2="250.72" xlink:href="#Dial_Gradient"/><linearGradient id="Dial_Gradient-283" x1="241.03" y1="76.29" x2="241.03" y2="250.72" xlink:href="#Dial_Gradient"/><linearGradient id="Dial_Gradient-284" x1="245.4" y1="76.29" x2="245.4" y2="250.72" xlink:href="#Dial_Gradient"/><linearGradient id="Dial_Gradient-285" x1="247.79" y1="76.29" x2="247.79" y2="250.72" xlink:href="#Dial_Gradient"/><linearGradient id="Dial_Gradient-286" x1="248.18" y1="76.29" x2="248.18" y2="250.72" xlink:href="#Dial_Gradient"/><linearGradient id="Dial_Gradient-287" x1="246.57" y1="76.29" x2="246.57" y2="250.72" xlink:href="#Dial_Gradient"/><linearGradient id="Dial_Gradient-288" x1="242.98" y1="76.29" x2="242.98" y2="250.72" xlink:href="#Dial_Gradient"/><linearGradient id="Dial_Gradient-289" x1="237.48" y1="76.29" x2="237.48" y2="250.72" xlink:href="#Dial_Gradient"/><linearGradient id="Dial_Gradient-290" x1="230.24" y1="76.29" x2="230.24" y2="250.72" xlink:href="#Dial_Gradient"/><linearGradient id="Dial_Gradient-291" x1="221.44" y1="76.29" x2="221.44" y2="250.72" xlink:href="#Dial_Gradient"/><linearGradient id="Dial_Gradient-292" x1="211.28" y1="76.29" x2="211.28" y2="250.72" xlink:href="#Dial_Gradient"/><linearGradient id="Dial_Gradient-293" x1="199.99" y1="76.29" x2="199.99" y2="250.72" xlink:href="#Dial_Gradient"/><linearGradient id="Dial_Gradient-294" x1="187.83" y1="76.29" x2="187.83" y2="250.72" xlink:href="#Dial_Gradient"/><linearGradient id="Dial_Gradient-295" x1="175.07" y1="76.29" x2="175.07" y2="250.72" xlink:href="#Dial_Gradient"/><linearGradient id="Dial_Gradient-296" x1="162.08" y1="95.05" x2="162.08" y2="231.97" xlink:href="#Dial_Gradient"/><linearGradient id="Dial_Gradient-297" x1="149.08" y1="95.05" x2="149.08" y2="231.97" xlink:href="#Dial_Gradient"/><linearGradient id="Dial_Gradient-298" x1="136.55" y1="95.05" x2="136.55" y2="231.97" xlink:href="#Dial_Gradient"/><linearGradient id="Dial_Gradient-299" x1="124.97" y1="95.05" x2="124.97" y2="231.97" xlink:href="#Dial_Gradient"/><linearGradient id="Dial_Gradient-300" x1="114.8" y1="95.05" x2="114.8" y2="231.97" xlink:href="#Dial_Gradient"/><linearGradient id="Dial_Gradient-301" x1="106.38" y1="95.05" x2="106.38" y2="231.97" xlink:href="#Dial_Gradient"/><linearGradient id="Dial_Gradient-302" x1="100.05" y1="95.05" x2="100.05" y2="231.97" xlink:href="#Dial_Gradient"/><linearGradient id="Dial_Gradient-303" x1="96.11" y1="95.05" x2="96.11" y2="231.97" xlink:href="#Dial_Gradient"/><linearGradient id="Dial_Gradient-304" x1="94.69" y1="95.05" x2="94.69" y2="231.97" xlink:href="#Dial_Gradient"/><linearGradient id="Dial_Gradient-305" x1="95.85" y1="95.05" x2="95.85" y2="231.97" xlink:href="#Dial_Gradient"/><linearGradient id="Dial_Gradient-306" x1="99.57" y1="95.05" x2="99.57" y2="231.97" xlink:href="#Dial_Gradient"/><linearGradient id="Dial_Gradient-307" x1="105.73" y1="95.05" x2="105.73" y2="231.97" xlink:href="#Dial_Gradient"/><linearGradient id="Dial_Gradient-308" x1="114.08" y1="95.05" x2="114.08" y2="231.97" xlink:href="#Dial_Gradient"/><linearGradient id="Dial_Gradient-309" x1="124.33" y1="95.05" x2="124.33" y2="231.97" xlink:href="#Dial_Gradient"/><linearGradient id="Dial_Gradient-310" x1="136.05" y1="95.05" x2="136.05" y2="231.97" xlink:href="#Dial_Gradient"/><linearGradient id="Dial_Gradient-311" x1="148.81" y1="95.05" x2="148.81" y2="231.97" xlink:href="#Dial_Gradient"/><linearGradient id="Dial_Gradient-312" x1="162.09" y1="95.05" x2="162.09" y2="231.97" xlink:href="#Dial_Gradient"/><linearGradient id="Dial_Gradient-313" x1="175.37" y1="95.05" x2="175.37" y2="231.97" xlink:href="#Dial_Gradient"/><linearGradient id="Dial_Gradient-314" x1="188.15" y1="95.05" x2="188.15" y2="231.97" xlink:href="#Dial_Gradient"/><linearGradient id="Dial_Gradient-315" x1="199.87" y1="95.05" x2="199.87" y2="231.97" xlink:href="#Dial_Gradient"/><linearGradient id="Dial_Gradient-316" x1="210.12" y1="95.05" x2="210.12" y2="231.97" xlink:href="#Dial_Gradient"/><linearGradient id="Dial_Gradient-317" x1="218.47" y1="95.05" x2="218.47" y2="231.97" xlink:href="#Dial_Gradient"/><linearGradient id="Dial_Gradient-318" x1="224.63" y1="95.05" x2="224.63" y2="231.97" xlink:href="#Dial_Gradient"/><linearGradient id="Dial_Gradient-319" x1="228.35" y1="95.05" x2="228.35" y2="231.97" xlink:href="#Dial_Gradient"/><linearGradient id="Dial_Gradient-320" x1="229.51" y1="95.05" x2="229.51" y2="231.97" xlink:href="#Dial_Gradient"/><linearGradient id="Dial_Gradient-321" x1="228.11" y1="95.05" x2="228.11" y2="231.97" xlink:href="#Dial_Gradient"/><linearGradient id="Dial_Gradient-322" x1="224.16" y1="95.05" x2="224.16" y2="231.97" xlink:href="#Dial_Gradient"/><linearGradient id="Dial_Gradient-323" x1="217.84" y1="95.05" x2="217.84" y2="231.97" xlink:href="#Dial_Gradient"/><linearGradient id="Dial_Gradient-324" x1="209.42" y1="95.05" x2="209.42" y2="231.97" xlink:href="#Dial_Gradient"/><linearGradient id="Dial_Gradient-325" x1="199.25" y1="95.05" x2="199.25" y2="231.97" xlink:href="#Dial_Gradient"/><linearGradient id="Dial_Gradient-326" x1="187.69" y1="95.05" x2="187.69" y2="231.97" xlink:href="#Dial_Gradient"/><linearGradient id="Dial_Gradient-327" x1="175.16" y1="95.05" x2="175.16" y2="231.97" xlink:href="#Dial_Gradient"/><linearGradient id="Dial_Gradient-328" x1="162.06" y1="113.8" x2="162.06" y2="213.21" xlink:href="#Dial_Gradient"/><linearGradient id="Dial_Gradient-329" x1="149.11" y1="113.8" x2="149.11" y2="213.21" xlink:href="#Dial_Gradient"/><linearGradient id="Dial_Gradient-330" x1="137.09" y1="113.8" x2="137.09" y2="213.21" xlink:href="#Dial_Gradient"/><linearGradient id="Dial_Gradient-331" x1="126.88" y1="113.8" x2="126.88" y2="213.21" xlink:href="#Dial_Gradient"/><linearGradient id="Dial_Gradient-332" x1="119.16" y1="113.8" x2="119.16" y2="213.21" xlink:href="#Dial_Gradient"/><linearGradient id="Dial_Gradient-333" x1="114.58" y1="113.8" x2="114.58" y2="213.21" xlink:href="#Dial_Gradient"/><linearGradient id="Dial_Gradient-334" x1="113.52" y1="113.8" x2="113.52" y2="213.21" xlink:href="#Dial_Gradient"/><linearGradient id="Dial_Gradient-335" x1="116.05" y1="113.8" x2="116.05" y2="213.21" xlink:href="#Dial_Gradient"/><linearGradient id="Dial_Gradient-336" x1="122.06" y1="113.8" x2="122.06" y2="213.21" xlink:href="#Dial_Gradient"/><linearGradient id="Dial_Gradient-337" x1="131.1" y1="113.8" x2="131.1" y2="213.21" xlink:href="#Dial_Gradient"/><linearGradient id="Dial_Gradient-338" x1="142.51" y1="113.8" x2="142.51" y2="213.21" xlink:href="#Dial_Gradient"/><linearGradient id="Dial_Gradient-339" x1="155.45" y1="113.8" x2="155.45" y2="213.21" xlink:href="#Dial_Gradient"/><linearGradient id="Dial_Gradient-340" x1="168.87" y1="113.8" x2="168.87" y2="213.21" xlink:href="#Dial_Gradient"/><linearGradient id="Dial_Gradient-341" x1="181.8" y1="113.8" x2="181.8" y2="213.21" xlink:href="#Dial_Gradient"/><linearGradient id="Dial_Gradient-342" x1="193.19" y1="113.8" x2="193.19" y2="213.21" xlink:href="#Dial_Gradient"/><linearGradient id="Dial_Gradient-343" x1="202.21" y1="113.8" x2="202.21" y2="213.21" xlink:href="#Dial_Gradient"/><linearGradient id="Dial_Gradient-344" x1="208.19" y1="113.8" x2="208.19" y2="213.21" xlink:href="#Dial_Gradient"/><linearGradient id="Dial_Gradient-345" x1="210.69" y1="113.8" x2="210.69" y2="213.21" xlink:href="#Dial_Gradient"/><linearGradient id="Dial_Gradient-346" x1="209.6" y1="113.8" x2="209.6" y2="213.21" xlink:href="#Dial_Gradient"/><linearGradient id="Dial_Gradient-347" x1="205" y1="113.8" x2="205" y2="213.21" xlink:href="#Dial_Gradient"/><linearGradient id="Dial_Gradient-348" x1="197.26" y1="113.8" x2="197.26" y2="213.21" xlink:href="#Dial_Gradient"/><linearGradient id="Dial_Gradient-349" x1="187.03" y1="113.8" x2="187.03" y2="213.21" xlink:href="#Dial_Gradient"/><linearGradient id="Dial_Gradient-350" x1="175.01" y1="113.8" x2="175.01" y2="213.21" xlink:href="#Dial_Gradient"/><linearGradient id="Dial_Gradient-351" x1="162.05" y1="132.56" x2="162.05" y2="194.45" xlink:href="#Dial_Gradient"/><linearGradient id="Dial_Gradient-352" x1="149.36" y1="132.56" x2="149.36" y2="194.45" xlink:href="#Dial_Gradient"/><linearGradient id="Dial_Gradient-353" x1="139.04" y1="132.56" x2="139.04" y2="194.45" xlink:href="#Dial_Gradient"/><linearGradient id="Dial_Gradient-354" x1="133.08" y1="132.56" x2="133.08" y2="194.45" xlink:href="#Dial_Gradient"/><linearGradient id="Dial_Gradient-355" x1="132.82" y1="132.56" x2="132.82" y2="194.45" xlink:href="#Dial_Gradient"/><linearGradient id="Dial_Gradient-356" x1="138.43" y1="132.56" x2="138.43" y2="194.45" xlink:href="#Dial_Gradient"/><linearGradient id="Dial_Gradient-357" x1="148.91" y1="132.56" x2="148.91" y2="194.45" xlink:href="#Dial_Gradient"/><linearGradient id="Dial_Gradient-358" x1="162.15" y1="132.56" x2="162.15" y2="194.45" xlink:href="#Dial_Gradient"/><linearGradient id="Dial_Gradient-359" x1="175.39" y1="132.56" x2="175.39" y2="194.45" xlink:href="#Dial_Gradient"/><linearGradient id="Dial_Gradient-360" x1="185.84" y1="132.56" x2="185.84" y2="194.45" xlink:href="#Dial_Gradient"/><linearGradient id="Dial_Gradient-361" x1="191.4" y1="132.56" x2="191.4" y2="194.45" xlink:href="#Dial_Gradient"/><linearGradient id="Dial_Gradient-362" x1="191.1" y1="132.56" x2="191.1" y2="194.45" xlink:href="#Dial_Gradient"/><linearGradient id="Dial_Gradient-363" x1="185.1" y1="132.56" x2="185.1" y2="194.45" xlink:href="#Dial_Gradient"/><linearGradient id="Dial_Gradient-364" x1="174.76" y1="132.56" x2="174.76" y2="194.45" xlink:href="#Dial_Gradient"/><linearGradient id="Dial_Gradient-365" x1="162.08" y1="151.32" x2="162.08" y2="175.69" xlink:href="#Dial_Gradient"/><linearGradient id="Dial_Gradient-366" x1="151.69" y1="151.32" x2="151.69" y2="175.69" xlink:href="#Dial_Gradient"/><linearGradient id="Dial_Gradient-367" x1="155.29" y1="151.32" x2="155.29" y2="175.69" xlink:href="#Dial_Gradient"/><linearGradient id="Dial_Gradient-368" x1="168.94" y1="151.32" x2="168.94" y2="175.69" xlink:href="#Dial_Gradient"/><linearGradient id="Dial_Gradient-369" x1="172.5" y1="151.32" x2="172.5" y2="175.69" xlink:href="#Dial_Gradient"/></defs><title>dial-bg-r0</title><g id="Layer_2" data-name="Layer 2"><g id="Layer_2-2" data-name="Layer 2"><path class="cls-1" d="M162.11,324.18h-.06a.18.18,0,0,1-.17-.17.17.17,0,0,1,.17-.18h.06a.18.18,0,0,1,.17.18A.18.18,0,0,1,162.11,324.18Z"/><path class="cls-2" d="M149,323.7h-.1a.19.19,0,0,1-.18-.21.19.19,0,0,1,.21-.18h.11a.2.2,0,1,1,0,.4Z"/><path class="cls-3" d="M136,322.16h-.1a.23.23,0,0,1,.07-.45h0l.1,0a.22.22,0,1,1-.07.44Z"/><path class="cls-4" d="M123.15,319.56l-.1,0a.25.25,0,0,1-.19-.3.26.26,0,0,1,.31-.19h0l.1,0a.25.25,0,0,1,.18.3A.24.24,0,0,1,123.15,319.56Z"/><path class="cls-5" d="M110.54,315.92l-.1,0a.26.26,0,0,1-.17-.34.28.28,0,0,1,.35-.18h0l.09,0a.26.26,0,0,1,.17.34A.27.27,0,0,1,110.54,315.92Z"/><path class="cls-6" d="M98.27,311.24l-.09,0a.29.29,0,0,1-.16-.39.3.3,0,0,1,.39-.16h0l.09,0a.3.3,0,0,1,.16.4A.29.29,0,0,1,98.27,311.24Z"/><path class="cls-7" d="M86.42,305.58l-.09-.05a.31.31,0,0,1-.13-.43.33.33,0,0,1,.44-.14h0l.09.05a.32.32,0,0,1-.31.57Z"/><path class="cls-8" d="M75.07,299l-.08-.06a.34.34,0,0,1-.1-.48.35.35,0,0,1,.48-.11h0l.08.05a.35.35,0,0,1,.11.48A.37.37,0,0,1,75.07,299Z"/><path class="cls-9" d="M64.3,291.45l-.07-.06a.37.37,0,0,1-.08-.52.38.38,0,0,1,.53-.08h0l.08.06a.38.38,0,0,1,.07.52A.39.39,0,0,1,64.3,291.45Z"/><path class="cls-10" d="M54.17,283.08,54.1,283a.4.4,0,1,1,.53-.59h0l.07.07a.4.4,0,1,1-.54.59Z"/><path class="cls-11" d="M44.75,273.91l-.06-.07a.42.42,0,1,1,.61-.58h0l.07.07a.42.42,0,0,1-.62.58Z"/><path class="cls-12" d="M36.07,264,36,264a.47.47,0,1,1,.73-.59h0l.06.08a.47.47,0,0,1-.08.66A.46.46,0,0,1,36.07,264Z"/><path class="cls-13" d="M28.19,253.5l-.06-.08a.54.54,0,0,1,.14-.74.53.53,0,0,1,.74.14h0l.05.08a.53.53,0,0,1-.14.74A.54.54,0,0,1,28.19,253.5Z"/><path class="cls-14" d="M21.19,242.35l-.05-.09a.59.59,0,1,1,1-.59h0l0,.09a.59.59,0,0,1-.23.81A.6.6,0,0,1,21.19,242.35Z"/><path class="cls-15" d="M15.12,230.65l0-.09a.63.63,0,0,1,.31-.86.65.65,0,0,1,.87.31h0l0,.09a.65.65,0,0,1-1.18.55Z"/><path class="cls-16" d="M10,218.49l0-.09a.71.71,0,1,1,1.33-.5h0l0,.1a.71.71,0,0,1-1.34.49Z"/><path class="cls-17" d="M5.94,205.94l0-.09a.77.77,0,1,1,1.49-.42h0l0,.1a.77.77,0,0,1-1.49.41Z"/><path class="cls-18" d="M2.9,193.09l0-.1a.83.83,0,0,1,1.63-.31h0v.1a.82.82,0,0,1-.66,1,.84.84,0,0,1-1-.66Z"/><path class="cls-19" d="M.92,180v-.1a.89.89,0,1,1,1.77-.2h0v.1A.89.89,0,0,1,.92,180Z"/><path class="cls-20" d="M0,166.83v-.1a1,1,0,0,1,.92-1,1,1,0,0,1,1,.93h0v.1a1,1,0,0,1-1.91.05Z"/><path class="cls-21" d="M.15,153.6v-.11a1,1,0,1,1,2,.11h0v.11a1,1,0,0,1-1.07.95,1,1,0,0,1-.95-1.07Z"/><path class="cls-22" d="M1.37,140.4v-.1a1.07,1.07,0,0,1,1.21-.92,1.06,1.06,0,0,1,.92,1.2h0l0,.1a1.07,1.07,0,0,1-2.12-.29Z"/><path class="cls-23" d="M3.66,127.34l0-.1A1.13,1.13,0,0,1,5,126.37a1.15,1.15,0,0,1,.87,1.35h0l0,.1a1.13,1.13,0,0,1-2.21-.49Z"/><path class="cls-24" d="M7,114.5l0-.1a1.19,1.19,0,1,1,2.28.7h0l0,.1A1.19,1.19,0,0,1,7,114.51Z"/><path class="cls-25" d="M11.43,102l0-.1a1.25,1.25,0,0,1,2.32.93h0l0,.09a1.25,1.25,0,0,1-2.32-.93Z"/><path class="cls-26" d="M16.85,89.85l0-.09a1.31,1.31,0,0,1,2.35,1.17h0l0,.09a1.32,1.32,0,0,1-1.77.57,1.31,1.31,0,0,1-.57-1.75Z"/><path class="cls-27" d="M23.25,78.2l.05-.08a1.37,1.37,0,1,1,2.35,1.41h0v0l-.06.08a1.37,1.37,0,0,1-2.34-1.43Z"/><path class="cls-28" d="M30.58,67.11l.06-.08A1.43,1.43,0,1,1,33,68.7h0l0,.08a1.43,1.43,0,0,1-2.32-1.68Z"/><path class="cls-29" d="M38.79,56.64l.07-.08a1.49,1.49,0,1,1,2.26,1.94h0l-.07.07a1.49,1.49,0,0,1-2.26-1.94Z"/><path class="cls-30" d="M47.88,46.91l.07-.07A1.52,1.52,0,1,1,50.08,49h0l-.07.07a1.52,1.52,0,0,1-2.12-2.17Z"/><path class="cls-31" d="M57.73,38l.08-.06a1.54,1.54,0,0,1,2,2.36h0l-.08.06a1.54,1.54,0,1,1-2-2.37Z"/><path class="cls-32" d="M68.28,29.81l.08,0a1.57,1.57,0,1,1,1.81,2.56h0l-.08.06a1.57,1.57,0,0,1-1.8-2.57Z"/><path class="cls-33" d="M79.46,22.56l.09,0a1.59,1.59,0,0,1,1.62,2.74h0l-.09,0a1.59,1.59,0,0,1-1.61-2.75Z"/><path class="cls-34" d="M91.2,16.24l.09,0a1.62,1.62,0,1,1,1.41,2.91h0l-.09.05a1.62,1.62,0,0,1-1.4-2.92Z"/><path class="cls-35" d="M103.42,10.91l.09,0a1.64,1.64,0,1,1,1.19,3.06h0l-.09,0a1.64,1.64,0,1,1-1.18-3.06Z"/><path class="cls-36" d="M116,6.59l.1,0a1.67,1.67,0,1,1,.94,3.2h0l-.09,0a1.67,1.67,0,0,1-.94-3.2Z"/><path class="cls-37" d="M129,3.32l.1,0a1.69,1.69,0,0,1,.69,3.31h0l-.09,0A1.69,1.69,0,1,1,129,3.32Z"/><path class="cls-38" d="M142.14,1.12h.1a1.72,1.72,0,0,1,.42,3.41h-.11a1.72,1.72,0,0,1-.41-3.41Z"/><path class="cls-39" d="M155.44,0h.1a1.76,1.76,0,0,1,1.82,1.67,1.74,1.74,0,0,1-1.67,1.81h-.11A1.74,1.74,0,1,1,155.44,0Z"/><path class="cls-40" d="M168.79,0h.11a1.74,1.74,0,0,1-.15,3.47h-.11A1.73,1.73,0,0,1,168.78,0Z"/><path class="cls-41" d="M182.1,1.14h.1a1.71,1.71,0,0,1-.41,3.4l-.1,0h0a1.71,1.71,0,1,1,.41-3.39Z"/><path class="cls-42" d="M195.27,3.34l.1,0a1.68,1.68,0,1,1-.68,3.3l-.1,0h0a1.68,1.68,0,0,1,.68-3.3Z"/><path class="cls-43" d="M208.21,6.61l.1,0a1.66,1.66,0,0,1-.94,3.19l-.1,0h0a1.66,1.66,0,1,1,.93-3.19Z"/><path class="cls-44" d="M220.83,10.93l.1,0a1.64,1.64,0,0,1-1.18,3l-.09,0h0a1.64,1.64,0,1,1,1.18-3.05Z"/><path class="cls-45" d="M233.05,16.27l.09.05a1.61,1.61,0,0,1-1.4,2.9l-.09,0h0a1.61,1.61,0,1,1,1.4-2.9Z"/><path class="cls-46" d="M244.79,22.6l.09,0a1.58,1.58,0,0,1-1.61,2.73l-.09-.05h0a1.59,1.59,0,0,1,1.6-2.74Z"/><path class="cls-47" d="M256,29.85l.08.06a1.56,1.56,0,0,1-1.8,2.55l-.08-.06h0a1.56,1.56,0,1,1,1.8-2.55Z"/><path class="cls-48" d="M266.51,38l.08.06a1.54,1.54,0,0,1-2,2.36l-.08-.06h0a1.54,1.54,0,1,1,2-2.36Z"/><path class="cls-49" d="M276.36,47l.07.07a1.51,1.51,0,1,1-2.12,2.16l-.07-.07h0a1.49,1.49,0,0,1,0-2.13,1.52,1.52,0,0,1,2.14,0Z"/><path class="cls-50" d="M285.44,56.69l.06.07h0a1.48,1.48,0,0,1-2.25,1.93l-.06-.07h0a1.48,1.48,0,1,1,2.24-1.94Z"/><path class="cls-51" d="M293.65,67.16l.05.08h0a1.42,1.42,0,0,1-.32,2,1.44,1.44,0,0,1-2-.31l-.05-.08h0a1.42,1.42,0,1,1,2.29-1.68Z"/><path class="cls-52" d="M301,78.26l0,.08h0a1.36,1.36,0,1,1-2.32,1.41l0-.08h0A1.36,1.36,0,1,1,301,78.25Z"/><path class="cls-53" d="M307.37,89.9l0,.09h0a1.3,1.3,0,0,1-2.33,1.17l0-.09h0a1.3,1.3,0,0,1,2.32-1.18Z"/><path class="cls-54" d="M312.78,102l0,.09h0a1.23,1.23,0,0,1-.69,1.61,1.25,1.25,0,0,1-1.61-.68l0-.09h0a1.24,1.24,0,1,1,2.3-.94Z"/><path class="cls-55" d="M317.18,114.55l0,.09h0a1.18,1.18,0,0,1-2.26.7l0-.09h0a1.18,1.18,0,1,1,2.25-.71Z"/><path class="cls-56" d="M320.54,127.38l0,.09h0a1.12,1.12,0,0,1-2.19.49l0-.1h0a1.12,1.12,0,1,1,2.19-.49Z"/><path class="cls-57" d="M322.83,140.43v.1h0a1.06,1.06,0,1,1-2.1.29l0-.09h0a1.07,1.07,0,0,1,2.11-.3Z"/><path class="cls-58" d="M324.05,153.62v.1h0a1,1,0,0,1-2,.12v-.1h0a1,1,0,0,1,.94-1.06,1,1,0,0,1,1.06.94Z"/><path class="cls-59" d="M324.19,166.85v.07a.94.94,0,0,1-1.88-.06v-.07a.94.94,0,0,1,1.88,0Z"/><path class="cls-60" d="M323.28,180v.1h0a.89.89,0,0,1-1.76-.19l0-.1h0a.88.88,0,1,1,1.75.18Z"/><path class="cls-61" d="M321.3,193.07l0,.1h0a.82.82,0,0,1-1.61-.31v-.1h0a.83.83,0,0,1,1.63.3Z"/><path class="cls-62" d="M318.26,205.93l0,.1h0a.77.77,0,0,1-.95.53.76.76,0,0,1-.53-.93l0-.1h0a.77.77,0,0,1,1.48.4Z"/><path class="cls-63" d="M314.18,218.48l0,.1h0a.7.7,0,0,1-.9.42.71.71,0,0,1-.42-.9l0-.1h0a.7.7,0,0,1,.9-.43.69.69,0,0,1,.42.9Z"/><path class="cls-64" d="M309.09,230.65l0,.09a.64.64,0,0,1-.85.31.65.65,0,0,1-.32-.85l0-.09h0a.66.66,0,0,1,.86-.32.66.66,0,0,1,.32.86Z"/><path class="cls-65" d="M303,242.34l0,.09a.59.59,0,0,1-1-.57l.05-.09h0a.57.57,0,0,1,.79-.22.58.58,0,0,1,.23.8Z"/><path class="cls-66" d="M296,253.49l-.06.09a.53.53,0,1,1-.87-.59l.05-.08a.52.52,0,0,1,.73-.15.53.53,0,0,1,.15.73Z"/><path class="cls-67" d="M288.14,264l-.06.08a.47.47,0,1,1-.73-.59l.06-.07a.46.46,0,0,1,.66-.08.47.47,0,0,1,.08.65Z"/><path class="cls-68" d="M279.46,273.91l-.07.07a.42.42,0,0,1-.61-.58l.06-.07a.43.43,0,0,1,.6,0,.41.41,0,0,1,0,.59Z"/><path class="cls-69" d="M270,283.07l-.07.07a.4.4,0,0,1-.56,0,.4.4,0,0,1,0-.56l.08-.07a.4.4,0,1,1,.53.59Z"/><path class="cls-70" d="M259.91,291.44l-.08.06a.36.36,0,0,1-.52-.07.38.38,0,0,1,.07-.52l.08-.06a.38.38,0,0,1,.52.07.36.36,0,0,1-.07.52Z"/><path class="cls-71" d="M249.14,299l-.08.05a.35.35,0,1,1-.38-.58l.08-.05a.35.35,0,1,1,.38.58Z"/><path class="cls-72" d="M237.79,305.58l-.08,0a.32.32,0,0,1-.44-.13.34.34,0,0,1,.13-.44l.09,0a.32.32,0,0,1,.44.13.34.34,0,0,1-.13.44Z"/><path class="cls-73" d="M226,311.24l-.09,0a.3.3,0,0,1-.39-.16.29.29,0,0,1,.15-.39l.09,0a.3.3,0,0,1,.39.16.29.29,0,0,1-.15.39Z"/><path class="cls-74" d="M213.68,315.91l-.09,0a.28.28,0,0,1-.35-.17.27.27,0,0,1,.18-.34l.09,0a.27.27,0,0,1,.34.17.27.27,0,0,1-.17.35Z"/><path class="cls-75" d="M201.08,319.56l-.09,0a.25.25,0,0,1-.3-.18.24.24,0,0,1,.18-.3l.09,0a.23.23,0,0,1,.3.18.24.24,0,0,1-.18.3Z"/><path class="cls-76" d="M188.23,322.16h-.1a.23.23,0,0,1-.26-.18.23.23,0,0,1,.19-.26h.09a.22.22,0,0,1,.26.18.23.23,0,0,1-.18.26Z"/><path class="cls-77" d="M175.2,323.7h-.1a.2.2,0,0,1-.21-.19.19.19,0,0,1,.18-.21h.1a.2.2,0,0,1,.22.18.21.21,0,0,1-.19.22Z"/><path class="cls-78" d="M162.11,305.42h-.06a.17.17,0,0,1-.17-.17.17.17,0,0,1,.17-.18h.06a.18.18,0,0,1,.17.18A.18.18,0,0,1,162.11,305.42Z"/><path class="cls-79" d="M149.05,304.88H149a.2.2,0,1,1,0-.4h.11a.2.2,0,0,1,0,.4Z"/><path class="cls-80" d="M136,303.14l-.1,0a.23.23,0,0,1-.19-.27.24.24,0,0,1,.27-.19h0l.1,0a.24.24,0,0,1,.19.27A.23.23,0,0,1,136,303.14Z"/><path class="cls-81" d="M123.25,300.2l-.1,0a.26.26,0,1,1,.14-.5h0l.1,0a.27.27,0,0,1,.18.32A.28.28,0,0,1,123.25,300.2Z"/><path class="cls-82" d="M110.78,296.08l-.1,0a.29.29,0,0,1-.16-.37.29.29,0,0,1,.37-.17h0l.1,0a.29.29,0,0,1,.16.37A.29.29,0,0,1,110.78,296.08Z"/><path class="cls-83" d="M98.74,290.81l-.08,0a.31.31,0,0,1-.15-.42.32.32,0,0,1,.43-.15h0l.09.05a.32.32,0,1,1-.29.56Z"/><path class="cls-84" d="M87.25,284.46l-.09-.06a.34.34,0,0,1,.36-.58h0l.08.05a.35.35,0,0,1,.11.48A.34.34,0,0,1,87.25,284.46Z"/><path class="cls-85" d="M76.39,277.07l-.08-.06a.37.37,0,0,1,.44-.6h0l.07.06a.37.37,0,1,1-.44.6Z"/><path class="cls-86" d="M66.24,268.7l-.07-.06a.41.41,0,0,1,0-.57.42.42,0,0,1,.57,0h0l.07.06a.4.4,0,1,1-.54.59Z"/><path class="cls-87" d="M56.91,259.44l-.07-.07a.43.43,0,1,1,.63-.58h0l.07.07a.43.43,0,0,1,0,.61A.42.42,0,0,1,56.91,259.44Z"/><path class="cls-88" d="M48.4,249.4l-.06-.08a.49.49,0,0,1,.09-.69.5.5,0,0,1,.69.09h0l0,.08a.49.49,0,1,1-.78.59Z"/><path class="cls-89" d="M40.84,238.62l-.05-.08a.56.56,0,1,1,.94-.6h0l0,.08a.56.56,0,1,1-.95.59Z"/><path class="cls-90" d="M34.3,227.17l0-.08a.64.64,0,0,1,.28-.85.63.63,0,0,1,.84.27h0l0,.08a.62.62,0,0,1-.28.84.63.63,0,0,1-.84-.27Z"/><path class="cls-91" d="M28.84,215.16l0-.09a.7.7,0,0,1,.38-.91.71.71,0,0,1,.91.39h0l0,.09a.7.7,0,0,1-.4.9.71.71,0,0,1-.9-.39Z"/><path class="cls-92" d="M24.52,202.68l0-.1a.77.77,0,0,1,1.47-.43h0l0,.09a.77.77,0,0,1-1.47.43Z"/><path class="cls-93" d="M21.38,189.84l0-.1a.82.82,0,0,1,.65-1,.83.83,0,0,1,1,.65h0l0,.1a.83.83,0,0,1-1.63.31Z"/><path class="cls-94" d="M19.43,176.75v-.09a.9.9,0,0,1,1.79-.19h0v.1a.9.9,0,1,1-1.79.17Z"/><path class="cls-95" d="M18.7,163.53v-.1a1,1,0,1,1,1.93,0h0v.1a1,1,0,0,1-1.93,0Z"/><path class="cls-96" d="M19.17,150.28v-.1a1,1,0,0,1,1.11-1,1,1,0,0,1,.95,1.12h0v.1a1,1,0,0,1-2.06-.18Z"/><path class="cls-97" d="M20.86,137.11V137a1.11,1.11,0,0,1,2.18.38h0l0,.11a1.1,1.1,0,0,1-2.17-.4Z"/><path class="cls-98" d="M23.76,124.15l0-.1a1.17,1.17,0,1,1,2.25.62h0l0,.1a1.17,1.17,0,0,1-2.25-.63Z"/><path class="cls-99" d="M27.86,111.5l0-.1a1.24,1.24,0,1,1,2.31.88h0l0,.09a1.24,1.24,0,0,1-2.31-.88Z"/><path class="cls-100" d="M33.12,99.28l0-.09a1.31,1.31,0,1,1,2.35,1.14h0l0,.09a1.3,1.3,0,0,1-2.34-1.15Z"/><path class="cls-101" d="M39.5,87.59l0-.09a1.38,1.38,0,0,1,2.35,1.43h0l-.05.08a1.37,1.37,0,0,1-2.34-1.43Z"/><path class="cls-102" d="M46.93,76.53l.06-.08a1.44,1.44,0,0,1,2.31,1.71v0h0l-.06.08a1.44,1.44,0,0,1-2.31-1.73Z"/><path class="cls-103" d="M55.37,66.2l.06-.08a1.5,1.5,0,0,1,2.23,2h0l-.07.07a1.5,1.5,0,1,1-2.21-2Z"/><path class="cls-104" d="M64.77,56.73l.07-.07a1.53,1.53,0,0,1,2.07,2.25h0l-.07.06a1.53,1.53,0,1,1-2.06-2.25Z"/><path class="cls-105" d="M75,48.15l.08-.06A1.56,1.56,0,0,1,77,50.57h0l-.07.06A1.56,1.56,0,0,1,75,48.15Z"/><path class="cls-106" d="M86,40.55l.08,0a1.59,1.59,0,0,1,1.69,2.69h0l-.08,0A1.59,1.59,0,0,1,86,40.55Z"/><path class="cls-107" d="M97.62,34l.09,0a1.62,1.62,0,0,1,1.45,2.89h0l-.09,0A1.61,1.61,0,0,1,97.62,34Z"/><path class="cls-108" d="M109.82,28.55l.1,0a1.64,1.64,0,0,1,1.19,3.06h0l-.09,0a1.65,1.65,0,0,1-2.12-.94A1.63,1.63,0,0,1,109.82,28.55Z"/><path class="cls-109" d="M122.49,24.25l.09,0a1.67,1.67,0,0,1,.93,3.21h0l-.09,0a1.67,1.67,0,1,1-.91-3.21Z"/><path class="cls-110" d="M135.49,21.15l.1,0a1.7,1.7,0,1,1,.64,3.34h0l-.09,0a1.7,1.7,0,0,1-.63-3.34Z"/><path class="cls-111" d="M148.74,19.27h.1a1.72,1.72,0,0,1,.33,3.43h-.12a1.72,1.72,0,0,1-.31-3.43Z"/><path class="cls-112" d="M162.11,18.62h.06a1.75,1.75,0,0,1,0,3.49h-.07a1.75,1.75,0,0,1,0-3.49Z"/><path class="cls-113" d="M175.42,19.27h.11a1.72,1.72,0,0,1-.32,3.43h-.11a1.72,1.72,0,0,1,.32-3.43Z"/><path class="cls-114" d="M188.68,21.15l.1,0a1.69,1.69,0,0,1-.62,3.33l-.1,0h0a1.69,1.69,0,0,1,.62-3.33Z"/><path class="cls-115" d="M201.69,24.25l.1,0a1.66,1.66,0,1,1-.91,3.2l-.09,0h0a1.66,1.66,0,1,1,.91-3.2Z"/><path class="cls-116" d="M214.36,28.55l.1,0a1.63,1.63,0,1,1-1.19,3l-.09,0h0a1.63,1.63,0,1,1,1.18-3Z"/><path class="cls-117" d="M226.57,34l.09,0a1.61,1.61,0,0,1-1.44,2.88l-.09-.05h0A1.61,1.61,0,1,1,226.56,34Z"/><path class="cls-118" d="M238.21,40.55l.08.05a1.58,1.58,0,0,1-1.66,2.69l-.09,0h0a1.58,1.58,0,0,1,1.66-2.68Z"/><path class="cls-119" d="M249.19,48.15l.08.06a1.55,1.55,0,0,1-1.87,2.47l-.08-.06h0a1.55,1.55,0,0,1,1.87-2.48Z"/><path class="cls-120" d="M259.42,56.72l.08.06A1.53,1.53,0,0,1,257.44,59l-.07-.06h0a1.51,1.51,0,0,1-.1-2.15,1.53,1.53,0,0,1,2.15-.1Z"/><path class="cls-121" d="M268.82,66.19l.07.07a1.49,1.49,0,0,1-2.21,2l-.07-.07h0a1.5,1.5,0,0,1,2.21-2Z"/><path class="cls-122" d="M277.25,76.52l.06.08h0A1.43,1.43,0,0,1,275,78.32l-.06-.07v0a1.43,1.43,0,0,1,2.28-1.72Z"/><path class="cls-123" d="M284.69,87.58l.05.08h0a1.36,1.36,0,0,1-2.32,1.43l-.05-.08v0a1.36,1.36,0,0,1,2.32-1.43Z"/><path class="cls-124" d="M291.06,99.27l.05.08h0a1.29,1.29,0,0,1-2.32,1.15l0-.09h0a1.3,1.3,0,0,1,2.32-1.16Z"/><path class="cls-125" d="M296.33,111.48l0,.09h0a1.23,1.23,0,1,1-2.29.88l0-.09h0a1.23,1.23,0,0,1,2.29-.89Z"/><path class="cls-126" d="M300.43,124.12l0,.1h0a1.16,1.16,0,0,1-2.24.62l0-.09h0a1.16,1.16,0,1,1,2.23-.64Z"/><path class="cls-127" d="M303.33,137.08l0,.1h0a1.08,1.08,0,0,1-.89,1.26,1.09,1.09,0,0,1-1.26-.88l0-.09h0a1.09,1.09,0,1,1,2.15-.4Z"/><path class="cls-128" d="M305,150.24v.1h0a1,1,0,0,1-2,.18v-.1h0a1,1,0,0,1,2-.19Z"/><path class="cls-129" d="M305.5,163.48v.1h0a1,1,0,0,1-1.92,0v-.1h0a1,1,0,0,1,1.92,0Z"/><path class="cls-130" d="M304.77,176.71v.1h0a.89.89,0,0,1-1.77-.17v-.11h0a.87.87,0,0,1,1-.8.9.9,0,0,1,.81,1Z"/><path class="cls-131" d="M302.83,189.8l0,.1h0a.82.82,0,0,1-1,.65.83.83,0,0,1-.65-1l0-.1h0a.82.82,0,1,1,1.62.3Z"/><path class="cls-132" d="M299.69,202.65l0,.09h0a.76.76,0,0,1-.94.51.75.75,0,0,1-.51-.93l0-.1h0a.76.76,0,0,1,1.46.41Z"/><path class="cls-133" d="M295.37,215.13l0,.09h0a.68.68,0,0,1-.9.38.67.67,0,0,1-.38-.88l0-.1h0a.69.69,0,1,1,1.28.49Z"/><path class="cls-134" d="M289.91,227.15l0,.09h0a.62.62,0,0,1-1.11-.56l0-.09h0a.62.62,0,0,1,1.12.55Z"/><path class="cls-135" d="M283.38,238.59l-.06.09a.55.55,0,0,1-.76.18.57.57,0,0,1-.18-.77l.06-.08h0a.55.55,0,1,1,.94.58Z"/><path class="cls-136" d="M275.82,249.38l-.06.08a.49.49,0,0,1-.68.09.5.5,0,0,1-.1-.68l.06-.08h0a.48.48,0,0,1,.68-.1.49.49,0,0,1,.09.68Z"/><path class="cls-137" d="M267.32,259.42l-.07.07a.42.42,0,0,1-.6,0,.44.44,0,0,1,0-.6l.07-.07a.42.42,0,1,1,.63.57Z"/><path class="cls-138" d="M258,268.68l-.08.07a.4.4,0,0,1-.53-.59l.07-.06a.4.4,0,0,1,.54.58Z"/><path class="cls-139" d="M247.84,277.05l-.07.06a.37.37,0,0,1-.45-.59l.08-.06a.37.37,0,0,1,.52.07.38.38,0,0,1-.07.52Z"/><path class="cls-140" d="M237,284.44l-.08.05a.34.34,0,1,1-.36-.58l.08-.05a.34.34,0,0,1,.36.58Z"/><path class="cls-141" d="M225.49,290.8l-.09,0a.31.31,0,1,1-.28-.56l.09,0a.31.31,0,0,1,.28.56Z"/><path class="cls-142" d="M213.46,296.06l-.09,0a.28.28,0,0,1-.37-.16.28.28,0,0,1,.16-.37l.09,0a.28.28,0,0,1,.37.16.28.28,0,0,1-.16.37Z"/><path class="cls-143" d="M201,300.19l-.09,0a.26.26,0,0,1-.32-.18.25.25,0,0,1,.18-.31l.09,0a.26.26,0,0,1,.32.18.26.26,0,0,1-.17.32Z"/><path class="cls-144" d="M188.21,303.13l-.1,0a.23.23,0,0,1-.08-.46h.1a.23.23,0,0,1,.27.18.23.23,0,0,1-.19.27Z"/><path class="cls-145" d="M175.21,304.88h-.1a.21.21,0,0,1-.22-.19.2.2,0,0,1,.18-.22h.1a.21.21,0,0,1,0,.41Z"/><path class="cls-146" d="M162.11,286.67h-.06a.18.18,0,0,1-.17-.18.17.17,0,0,1,.17-.17h.06a.17.17,0,0,1,.17.17A.18.18,0,0,1,162.11,286.67Z"/><path class="cls-147" d="M149.05,286H149a.21.21,0,0,1-.19-.23.21.21,0,0,1,.23-.18h.1a.21.21,0,1,1,0,.41Z"/><path class="cls-148" d="M136.08,284l-.1,0a.25.25,0,0,1-.19-.29.24.24,0,0,1,.29-.18h0l.1,0a.24.24,0,0,1,.18.29A.23.23,0,0,1,136.08,284Z"/><path class="cls-149" d="M123.39,280.64l-.1,0a.27.27,0,0,1,.17-.52h0l.1,0a.28.28,0,0,1,.17.35A.27.27,0,0,1,123.39,280.64Z"/><path class="cls-150" d="M111.13,275.91l-.09,0a.3.3,0,0,1-.15-.4.3.3,0,0,1,.4-.15h0l.09,0a.31.31,0,0,1,.16.4A.31.31,0,0,1,111.13,275.91Z"/><path class="cls-151" d="M99.45,269.9l-.09,0a.34.34,0,0,1-.12-.46.33.33,0,0,1,.46-.12h0l.08.05a.34.34,0,1,1-.34.58Z"/><path class="cls-152" d="M88.47,262.67l-.08-.05a.37.37,0,0,1,.44-.6h0l.08.06a.37.37,0,0,1-.44.59Z"/><path class="cls-153" d="M78.31,254.32l-.07-.07a.39.39,0,0,1,0-.56.4.4,0,0,1,.57,0h0l.07.07a.39.39,0,0,1,0,.57A.4.4,0,0,1,78.31,254.32Z"/><path class="cls-154" d="M69.08,244.94l-.07-.07a.43.43,0,0,1,0-.62.44.44,0,0,1,.62,0h0l.07.08a.43.43,0,0,1,0,.61A.44.44,0,0,1,69.08,244.94Z"/><path class="cls-155" d="M60.82,234.68l-.06-.08a.52.52,0,0,1,.84-.6h0l0,.08a.51.51,0,0,1-.12.72.52.52,0,0,1-.72-.12Z"/><path class="cls-156" d="M53.68,223.59l0-.08a.59.59,0,0,1,.23-.81.58.58,0,0,1,.81.22h0l0,.09a.59.59,0,0,1-1,.58Z"/><path class="cls-157" d="M47.76,211.79l0-.09a.69.69,0,0,1,.35-.89.68.68,0,0,1,.89.35h0l0,.09a.67.67,0,0,1-.35.88.68.68,0,0,1-.88-.35Z"/><path class="cls-158" d="M43.14,199.41l0-.1a.74.74,0,0,1,.49-.94.76.76,0,0,1,.94.49h0l0,.09a.75.75,0,0,1-1.43.45Z"/><path class="cls-159" d="M39.86,186.59l0-.1a.83.83,0,0,1,1.63-.33h0l0,.1a.84.84,0,0,1-.67,1,.83.83,0,0,1-1-.65Z"/><path class="cls-160" d="M38,173.47v-.1a.91.91,0,0,1,.83-1,.89.89,0,0,1,1,.82h0v.12a.91.91,0,0,1-1.81.15Z"/><path class="cls-161" d="M37.46,160.21v-.1a1,1,0,0,1,2,0h0v.12a1,1,0,0,1-2,0Z"/><path class="cls-162" d="M38.36,147v-.11a1.06,1.06,0,0,1,2.11.26h0v.12a1.07,1.07,0,0,1-2.12-.27Z"/><path class="cls-163" d="M40.66,133.84l0-.1a1.14,1.14,0,0,1,2.23.52h0v0l0,.1a1.14,1.14,0,0,1-2.22-.53Z"/><path class="cls-164" d="M44.36,121l0-.09a1.22,1.22,0,1,1,2.31.8h0v0l0,.09a1.22,1.22,0,0,1-2.3-.82Z"/><path class="cls-165" d="M49.41,108.7l0-.09a1.3,1.3,0,0,1,2.35,1.11h0v0l0,.09a1.29,1.29,0,0,1-1.73.59,1.3,1.3,0,0,1-.61-1.72Z"/><path class="cls-166" d="M55.75,97l.06-.09a1.38,1.38,0,0,1,1.89-.46,1.39,1.39,0,0,1,.46,1.9h0v0l0,.08a1.38,1.38,0,0,1-1.9.43A1.36,1.36,0,0,1,55.75,97Z"/><path class="cls-167" d="M63.32,85.94l.06-.07a1.46,1.46,0,0,1,2.31,1.77h0v0l-.06.07a1.47,1.47,0,0,1-2,.25,1.46,1.46,0,0,1-.25-2Z"/><path class="cls-168" d="M72.05,75.81l.07-.07a1.51,1.51,0,1,1,2.17,2.1h0l-.06.07a1.51,1.51,0,0,1-2.17-2.11Z"/><path class="cls-169" d="M81.84,66.69l.08-.06a1.54,1.54,0,1,1,2,2.36h0l-.08.06a1.54,1.54,0,1,1-2-2.37Z"/><path class="cls-170" d="M92.55,58.65l.08-.06a1.58,1.58,0,1,1,1.76,2.62h0l-.09.05a1.57,1.57,0,0,1-1.74-2.62Z"/><path class="cls-171" d="M104.06,51.79l.09,0a1.61,1.61,0,0,1,1.49,2.85h0l-.09,0a1.61,1.61,0,1,1-1.48-2.85Z"/><path class="cls-172" d="M116.24,46.19l.09,0a1.64,1.64,0,1,1,1.21,3.05h0l-.09,0a1.64,1.64,0,1,1-1.19-3.05Z"/><path class="cls-173" d="M129,41.92l.1,0a1.68,1.68,0,0,1,.89,3.23h0l-.1,0a1.67,1.67,0,1,1-.87-3.23Z"/><path class="cls-174" d="M142.06,39l.1,0a1.71,1.71,0,0,1,.55,3.37h0l-.1,0a1.71,1.71,0,1,1-.53-3.37Z"/><path class="cls-175" d="M155.4,37.57h.1a1.74,1.74,0,1,1,.19,3.47h-.11a1.74,1.74,0,1,1-.18-3.47Z"/><path class="cls-176" d="M168.82,37.58h.11a1.73,1.73,0,1,1-.19,3.45h-.11a1.73,1.73,0,0,1,.18-3.46Z"/><path class="cls-177" d="M182.17,39.05l.1,0h0a1.7,1.7,0,0,1,1.4,2,1.68,1.68,0,0,1-1.94,1.4h-.11a1.7,1.7,0,0,1,.53-3.36Z"/><path class="cls-178" d="M195.28,41.94l.1,0h0a1.67,1.67,0,1,1-.89,3.21l-.09,0h0a1.66,1.66,0,1,1,.87-3.21Z"/><path class="cls-179" d="M208,46.21l.09,0h0a1.63,1.63,0,0,1-1.2,3l-.09,0h0a1.63,1.63,0,1,1,1.19-3Z"/><path class="cls-180" d="M220.18,51.81l.09,0h0a1.6,1.6,0,0,1-1.48,2.84l-.09-.05h0a1.6,1.6,0,0,1,1.48-2.84Z"/><path class="cls-181" d="M231.68,58.68l.09,0A1.57,1.57,0,0,1,230,61.34l-.09-.05h0a1.57,1.57,0,1,1,1.74-2.62Z"/><path class="cls-182" d="M242.39,66.72l.07.06a1.55,1.55,0,0,1,.2,2.17,1.53,1.53,0,0,1-2.16.19l-.08-.06h0a1.54,1.54,0,1,1,2-2.37Z"/><path class="cls-183" d="M252.18,75.84l.06.07a1.5,1.5,0,1,1-2.15,2.1l-.07-.07h0a1.51,1.51,0,0,1,2.16-2.1Z"/><path class="cls-184" d="M260.89,86l.07.08h0a1.44,1.44,0,0,1-2.28,1.77l-.06-.08h0A1.44,1.44,0,1,1,260.88,86Z"/><path class="cls-185" d="M268.46,97l.05.09h0a1.37,1.37,0,0,1-2.33,1.44l-.05-.08v0A1.37,1.37,0,0,1,268.45,97Z"/><path class="cls-186" d="M274.8,108.74l0,.09h0a1.29,1.29,0,0,1-2.32,1.11l0-.09h0a1.29,1.29,0,1,1,2.31-1.13Z"/><path class="cls-187" d="M279.85,121.07l0,.1h0a1.21,1.21,0,0,1-2.29.81l0-.1h0a1.21,1.21,0,1,1,2.27-.82Z"/><path class="cls-188" d="M283.54,133.86l0,.1h0a1.14,1.14,0,0,1-2.21.52l0-.09v0a1.13,1.13,0,0,1,2.2-.53Z"/><path class="cls-189" d="M285.84,147v.1h0a1,1,0,0,1-.92,1.17,1.06,1.06,0,0,1-1.17-.91v-.11a1.05,1.05,0,1,1,2.09-.27Z"/><path class="cls-190" d="M286.74,160.21v.1h0a1,1,0,0,1-2,0v-.1h0a1,1,0,0,1,2-.05Z"/><path class="cls-191" d="M286.24,173.47v.11h0a.9.9,0,0,1-1.8-.15v-.1h0a.9.9,0,1,1,1.8.14Z"/><path class="cls-192" d="M284.34,186.59l0,.11h0a.82.82,0,1,1-1.61-.31v-.1h0a.82.82,0,1,1,1.61.3Z"/><path class="cls-193" d="M281.06,199.42l0,.1h0a.75.75,0,0,1-1.43-.44l0-.1h0a.74.74,0,0,1,1.42.43Z"/><path class="cls-194" d="M276.43,211.81l0,.09h0a.67.67,0,0,1-1.23-.53l0-.09h0a.67.67,0,0,1,.88-.35.65.65,0,0,1,.35.87Z"/><path class="cls-195" d="M270.51,223.61l-.05.09h0a.6.6,0,0,1-.81.22.59.59,0,0,1-.22-.8l.05-.08h0a.59.59,0,0,1,.8-.23.58.58,0,0,1,.23.8Z"/><path class="cls-196" d="M263.37,234.7l-.05.08h0a.51.51,0,0,1-.83-.59l.06-.08h0a.51.51,0,0,1,.84.59Z"/><path class="cls-197" d="M255.12,245l-.07.08a.44.44,0,0,1-.65-.58l.06-.07h0a.43.43,0,0,1,.65.57Z"/><path class="cls-198" d="M245.89,254.33l-.07.07a.4.4,0,1,1-.55-.59l.08-.07a.4.4,0,0,1,.56,0,.41.41,0,0,1,0,.57Z"/><path class="cls-199" d="M235.73,262.68l-.08.06a.37.37,0,0,1-.52-.08.37.37,0,0,1,.08-.51l.08-.06a.37.37,0,0,1,.44.59Z"/><path class="cls-200" d="M224.74,269.91l-.08,0a.34.34,0,0,1-.34-.58l.08-.05a.34.34,0,0,1,.35.58Z"/><path class="cls-201" d="M213.06,275.92l-.09,0a.3.3,0,0,1-.25-.55l.09,0a.3.3,0,1,1,.25.55Z"/><path class="cls-202" d="M200.81,280.65l-.1,0a.28.28,0,0,1-.34-.18.27.27,0,0,1,.18-.34l.09,0a.27.27,0,0,1,.34.17.26.26,0,0,1-.17.34Z"/><path class="cls-203" d="M188.13,284l-.1,0a.23.23,0,0,1-.28-.18.24.24,0,0,1,.18-.29l.1,0a.24.24,0,0,1,.28.18.24.24,0,0,1-.18.29Z"/><path class="cls-204" d="M175.16,286h-.1a.2.2,0,0,1-.22-.18.21.21,0,0,1,.18-.23h.1a.21.21,0,1,1,0,.41Z"/><path class="cls-205" d="M162.11,267.91h-.06a.18.18,0,0,1-.17-.18.17.17,0,0,1,.17-.17h.06a.18.18,0,0,1,.17.17A.18.18,0,0,1,162.11,267.91Z"/><path class="cls-206" d="M149.05,267.17H149a.21.21,0,0,1-.18-.24.21.21,0,0,1,.23-.19h0l.1,0a.2.2,0,0,1,.18.23A.22.22,0,0,1,149.05,267.17Z"/><path class="cls-207" d="M136.14,264.8l-.1,0a.26.26,0,0,1-.19-.31.27.27,0,0,1,.31-.18h0l.1,0a.24.24,0,0,1,.18.3A.25.25,0,0,1,136.14,264.8Z"/><path class="cls-208" d="M123.62,260.81l-.1,0a.29.29,0,0,1,.21-.54h0l.09,0a.28.28,0,0,1,.16.37A.3.3,0,0,1,123.62,260.81Z"/><path class="cls-209" d="M111.69,255.27l-.08-.05a.32.32,0,0,1-.13-.44.33.33,0,0,1,.44-.14h0l.09,0a.33.33,0,0,1,.13.45A.34.34,0,0,1,111.69,255.27Z"/><path class="cls-210" d="M100.56,248.27l-.08-.05a.37.37,0,1,1,.43-.6h0l.08.06a.37.37,0,0,1,.08.51A.36.36,0,0,1,100.56,248.27Z"/><path class="cls-211" d="M90.38,239.93l-.08-.06a.41.41,0,0,1,0-.57.4.4,0,0,1,.57,0h0l.07.06a.42.42,0,0,1,0,.58A.4.4,0,0,1,90.38,239.93Z"/><path class="cls-212" d="M81.28,230.41l-.06-.08a.46.46,0,1,1,.7-.59h0l.06.07a.46.46,0,1,1-.71.59Z"/><path class="cls-213" d="M73.37,219.85l-.05-.08a.55.55,0,0,1,.16-.77.56.56,0,0,1,.76.16h0l0,.09a.55.55,0,1,1-.92.59Z"/><path class="cls-214" d="M66.84,208.36l0-.08a.65.65,0,1,1,1.16-.57h0l.05.08a.65.65,0,0,1-.31.86.64.64,0,0,1-.85-.3Z"/><path class="cls-215" d="M61.8,196.13l0-.1a.73.73,0,1,1,1.39-.47h0l0,.09a.74.74,0,0,1-1.4.47Z"/><path class="cls-216" d="M58.34,183.33l0-.1a.83.83,0,0,1,1.62-.33h0V183a.83.83,0,0,1-1.62.32Z"/><path class="cls-217" d="M56.51,170.18v-.1a.92.92,0,1,1,1.84-.14h0v.12a.92.92,0,0,1-1.84.12Z"/><path class="cls-218" d="M56.33,156.88v-.11a1,1,0,0,1,2,.1h0V157a1,1,0,0,1-2-.11Z"/><path class="cls-219" d="M57.81,143.62v-.1a1.11,1.11,0,0,1,2.18.39h0v0l0,.1a1.11,1.11,0,0,1-2.18-.4Z"/><path class="cls-220" d="M60.94,130.64l0-.09a1.2,1.2,0,1,1,2.29.71h0v0l0,.09a1.2,1.2,0,0,1-2.28-.72Z"/><path class="cls-221" d="M65.71,118.14l0-.09a1.29,1.29,0,1,1,2.35,1.07h0v0l0,.09a1.29,1.29,0,0,1-2.34-1.08Z"/><path class="cls-222" d="M72,106.33l.06-.09a1.38,1.38,0,1,1,2.35,1.46h0v0l-.06.08A1.38,1.38,0,0,1,72,106.34Z"/><path class="cls-223" d="M79.76,95.38l.06-.08a1.48,1.48,0,0,1,2.3,1.86h0l0,0-.06.07a1.47,1.47,0,0,1-2.28-1.86Z"/><path class="cls-224" d="M88.88,85.53l.08-.07a1.52,1.52,0,0,1,2.09,2.21h0l-.07.06a1.52,1.52,0,0,1-2.09-2.21Z"/><path class="cls-225" d="M99.19,76.91l.08-.06a1.56,1.56,0,0,1,1.85,2.52h0l-.08.05a1.56,1.56,0,0,1-1.85-2.52Z"/><path class="cls-226" d="M110.5,69.63l.09,0a1.6,1.6,0,0,1,1.55,2.8h0l-.09,0a1.6,1.6,0,0,1-1.55-2.8Z"/><path class="cls-227" d="M122.64,63.83l.1,0A1.64,1.64,0,0,1,124,66.84h0l-.09,0a1.64,1.64,0,0,1-1.21-3Z"/><path class="cls-228" d="M135.43,59.61l.09,0a1.68,1.68,0,0,1,.85,3.25h0l-.09,0a1.68,1.68,0,0,1-.84-3.25Z"/><path class="cls-229" d="M148.65,57h.1a1.71,1.71,0,1,1,.45,3.4h-.12a1.71,1.71,0,0,1-.43-3.4Z"/><path class="cls-230" d="M162.11,56.14h.07a1.75,1.75,0,0,1,0,3.49h-.07a1.75,1.75,0,1,1,0-3.49Z"/><path class="cls-231" d="M175.51,57l.1,0h0a1.71,1.71,0,0,1-.43,3.39l-.1,0h0A1.71,1.71,0,1,1,175.5,57Z"/><path class="cls-232" d="M188.74,59.61l.1,0h0a1.67,1.67,0,0,1-.84,3.23l-.09,0h0a1.67,1.67,0,1,1,.82-3.23Z"/><path class="cls-233" d="M201.54,63.83l.09,0h0a1.63,1.63,0,0,1-1.21,3l-.1,0h0a1.63,1.63,0,1,1,1.2-3Z"/><path class="cls-234" d="M213.68,69.63l.09.05h0a1.6,1.6,0,0,1-1.55,2.79l-.09,0h0a1.6,1.6,0,0,1,1.54-2.8Z"/><path class="cls-235" d="M225,76.9l.09.06h0a1.56,1.56,0,0,1-1.84,2.51l-.08,0h0A1.56,1.56,0,1,1,225,76.89Z"/><path class="cls-236" d="M235.3,85.52l.07.07h0a1.52,1.52,0,0,1-2.09,2.21l-.07-.07h0a1.51,1.51,0,0,1-.07-2.15,1.53,1.53,0,0,1,2.15-.07Z"/><path class="cls-237" d="M244.42,95.37l.06.08v0a1.46,1.46,0,0,1-2.26,1.84l-.06-.07,0,0a1.46,1.46,0,0,1,2.26-1.86Z"/><path class="cls-238" d="M252.17,106.32l.05.08v0a1.37,1.37,0,0,1-2.32,1.45l0-.08v0a1.37,1.37,0,1,1,2.31-1.47Z"/><path class="cls-239" d="M258.48,118.13l0,.09h0a1.28,1.28,0,0,1-2.32,1.08l0-.09v0a1.28,1.28,0,1,1,2.31-1.09Z"/><path class="cls-240" d="M263.24,130.62l0,.09v0a1.17,1.17,0,0,1-.78,1.48,1.19,1.19,0,0,1-1.48-.77l0-.09h0a1.18,1.18,0,0,1,.76-1.5,1.2,1.2,0,0,1,1.5.76Z"/><path class="cls-241" d="M266.38,143.58l0,.1v0a1.09,1.09,0,0,1-2.15.39l0-.1h0a1.08,1.08,0,0,1,.87-1.28,1.09,1.09,0,0,1,1.28.87Z"/><path class="cls-242" d="M267.87,156.82v.12a1,1,0,0,1-2,.11v-.12a1,1,0,1,1,2-.12Z"/><path class="cls-243" d="M267.69,170.12v.11h0a.9.9,0,0,1-1,.84.92.92,0,0,1-.85-1V170h0a.91.91,0,1,1,1.82.11Z"/><path class="cls-244" d="M265.87,183.29l0,.1h0a.82.82,0,0,1-1.61-.32l0-.1h0a.82.82,0,0,1,1.61.3Z"/><path class="cls-245" d="M262.41,196.09l0,.1h0a.73.73,0,0,1-.93.46.74.74,0,0,1-.46-.92l0-.09h0a.73.73,0,0,1,.92-.47.74.74,0,0,1,.47.92Z"/><path class="cls-246" d="M257.37,208.33l0,.09h0a.62.62,0,0,1-.85.29.63.63,0,0,1-.29-.84l0-.09h0a.64.64,0,0,1,1.16.55Z"/><path class="cls-247" d="M250.84,219.82l-.05.08h0a.56.56,0,0,1-.76.16.55.55,0,0,1-.16-.75l0-.09h0a.54.54,0,0,1,.75-.17.55.55,0,0,1,.17.75Z"/><path class="cls-248" d="M242.94,230.38l-.06.07h0a.46.46,0,0,1-.7-.59l.06-.07h0a.45.45,0,0,1,.7.58Z"/><path class="cls-249" d="M233.86,239.91l-.08.07a.4.4,0,0,1-.55-.59l.07-.06a.4.4,0,1,1,.56.58Z"/><path class="cls-250" d="M223.68,248.25l-.08.06a.37.37,0,0,1-.43-.59l.08-.06a.37.37,0,1,1,.43.59Z"/><path class="cls-251" d="M212.54,255.25l-.08.05a.33.33,0,0,1-.45-.13.33.33,0,0,1,.13-.44l.09,0a.32.32,0,0,1,.44.13.33.33,0,0,1-.12.44Z"/><path class="cls-252" d="M200.62,260.79l-.09,0a.28.28,0,0,1-.37-.16.29.29,0,0,1,.16-.38l.09,0a.29.29,0,0,1,.38.16.28.28,0,0,1-.16.37Z"/><path class="cls-253" d="M188.11,264.78l-.09,0a.25.25,0,0,1-.3-.18.25.25,0,0,1,.18-.31l.09,0a.25.25,0,1,1,.13.48Z"/><path class="cls-254" d="M175.21,267.16h-.1a.21.21,0,0,1-.24-.18.22.22,0,0,1,.19-.24h.09a.22.22,0,0,1,.24.18.2.2,0,0,1-.18.24Z"/><path class="cls-255" d="M162.11,249.15h-.06a.18.18,0,0,1-.17-.17.17.17,0,0,1,.17-.18h.06a.18.18,0,0,1,.17.18A.18.18,0,0,1,162.11,249.15Z"/><path class="cls-256" d="M149.07,248.21l-.1,0a.2.2,0,0,1-.17-.23.19.19,0,0,1,.22-.17h0l.1,0a.21.21,0,0,1,.17.23A.2.2,0,0,1,149.07,248.21Z"/><path class="cls-257" d="M136.27,245.28l-.1,0a.23.23,0,1,1,.14-.44h0l.09,0a.23.23,0,0,1,.15.29A.23.23,0,0,1,136.27,245.28Z"/><path class="cls-258" d="M124.07,240.42l-.09,0a.25.25,0,1,1,.22-.46h0l.09,0a.26.26,0,0,1,.11.35A.25.25,0,0,1,124.07,240.42Z"/><path class="cls-259" d="M112.7,233.8l-.08-.05a.33.33,0,0,1-.08-.46.32.32,0,0,1,.46-.08h0l.08.06a.33.33,0,1,1-.38.53Z"/><path class="cls-260" d="M102.47,225.53l-.08-.07a.4.4,0,0,1,.55-.58h0l.07.06a.4.4,0,0,1-.55.58Z"/><path class="cls-261" d="M93.55,215.8l-.06-.08a.49.49,0,0,1,.77-.6h0l.06.08a.49.49,0,0,1-.77.6Z"/><path class="cls-262" d="M86.17,204.83l0-.08a.6.6,0,0,1,1-.6h0l0,.09a.6.6,0,0,1-1,.58Z"/><path class="cls-263" d="M80.55,192.83l0-.09a.72.72,0,0,1,1.34-.51h0v0l0,.09a.71.71,0,0,1-.43.91.72.72,0,0,1-.91-.42Z"/><path class="cls-264" d="M76.82,180.08l0-.1a.83.83,0,1,1,1.62-.34h0v0l0,.1a.82.82,0,0,1-.65,1,.83.83,0,0,1-1-.64Z"/><path class="cls-265" d="M75.09,166.87v-.1a.94.94,0,1,1,1.88-.1h0v.12a.94.94,0,0,1-1.87.09Z"/><path class="cls-266" d="M75.37,153.52v-.1a1.05,1.05,0,1,1,2.1.2h0v.13a1.05,1.05,0,0,1-2.09-.22Z"/><path class="cls-267" d="M77.69,140.33l0-.1a1.17,1.17,0,1,1,2.26.58h0v0l0,.1a1.16,1.16,0,0,1-2.25-.6Z"/><path class="cls-268" d="M82,127.62l0-.09a1.27,1.27,0,0,1,2.34,1v0l-.05.09a1.27,1.27,0,0,1-2.33-1Z"/><path class="cls-269" d="M88.27,115.7l.06-.08a1.39,1.39,0,0,1,2.35,1.47v0l-.06.08a1.39,1.39,0,0,1-2.34-1.49Z"/><path class="cls-270" d="M96.28,104.86l.07-.08a1.5,1.5,0,1,1,2.25,2h0l-.06.07a1.5,1.5,0,0,1-2.25-2Z"/><path class="cls-271" d="M105.92,95.4l.08-.07a1.57,1.57,0,1,1,2,2.4h0l-.07.06a1.57,1.57,0,0,1-2-2.4Z"/><path class="cls-272" d="M116.91,87.5l.08-.06a1.64,1.64,0,1,1,1.7,2.8h0l-.08,0a1.64,1.64,0,0,1-1.69-2.81Z"/><path class="cls-273" d="M129,81.39l.1,0a1.68,1.68,0,0,1,1.27,3.12h0l-.09,0A1.69,1.69,0,0,1,129,81.39Z"/><path class="cls-274" d="M141.91,77.26l.1,0a1.71,1.71,0,1,1,.79,3.33h0l-.1,0a1.71,1.71,0,0,1-.78-3.34Z"/><path class="cls-275" d="M155.31,75.16h.1a1.74,1.74,0,0,1,.28,3.46h-.11a1.74,1.74,0,0,1-.27-3.47Z"/><path class="cls-276" d="M168.88,75.17h.1a1.73,1.73,0,1,1-.26,3.46h-.11a1.73,1.73,0,0,1,.26-3.46Z"/><path class="cls-277" d="M182.29,77.27l.1,0a1.71,1.71,0,0,1-.78,3.33l-.1,0h0a1.7,1.7,0,1,1,.77-3.32Z"/><path class="cls-278" d="M195.21,81.4l.09,0A1.68,1.68,0,1,1,194,84.56l-.09,0h0a1.68,1.68,0,1,1,1.26-3.12Z"/><path class="cls-279" d="M207.3,87.51l.09,0h0a1.63,1.63,0,0,1-1.68,2.79l-.09,0h0a1.63,1.63,0,1,1,1.67-2.8Z"/><path class="cls-280" d="M218.28,95.41l.08.06h0a1.56,1.56,0,0,1-2,2.39l-.08-.06h0a1.56,1.56,0,1,1,2-2.4Z"/><path class="cls-281" d="M227.92,104.87l.06.08h0a1.5,1.5,0,0,1-.16,2.1,1.48,1.48,0,0,1-2.08-.14l-.07-.07v0a1.49,1.49,0,0,1,2.22-2Z"/><path class="cls-282" d="M235.93,115.72l0,.08v0a1.38,1.38,0,0,1-2.32,1.48l-.06-.09h0a1.38,1.38,0,1,1,2.31-1.5Z"/><path class="cls-283" d="M242.17,127.63l0,.09v0a1.27,1.27,0,0,1-2.32,1l0-.08v0a1.27,1.27,0,1,1,2.31-1Z"/><path class="cls-284" d="M246.5,140.33l0,.1h0a1.15,1.15,0,0,1-2.23.59l0-.09v0a1.16,1.16,0,1,1,2.23-.61Z"/><path class="cls-285" d="M248.82,153.51v.12a1,1,0,0,1-.93,1.13,1,1,0,0,1-1.14-.92v-.11a1,1,0,0,1,2.07-.24Z"/><path class="cls-286" d="M249.11,166.86V167a.93.93,0,0,1-1.85-.09v-.12a.93.93,0,0,1,1.86.07Z"/><path class="cls-287" d="M247.38,180.07l0,.1h0a.82.82,0,0,1-1.61-.32l0-.1v0a.82.82,0,0,1,1.6.32Z"/><path class="cls-288" d="M243.66,192.83l0,.09h0a.71.71,0,0,1-1.33-.49l0-.09h0a.71.71,0,1,1,1.33.48Z"/><path class="cls-289" d="M238,204.83l-.05.09h0a.59.59,0,1,1-1-.57l0-.09h0a.59.59,0,1,1,1,.57Z"/><path class="cls-290" d="M230.65,215.8l-.06.07h0a.48.48,0,0,1-.76-.59l.06-.08h0a.49.49,0,0,1,.77.59Z"/><path class="cls-291" d="M221.74,225.52l-.07.07a.39.39,0,1,1-.54-.57l.07-.06a.38.38,0,0,1,.55,0,.4.4,0,0,1,0,.56Z"/><path class="cls-292" d="M211.51,233.8l-.09.06a.32.32,0,0,1-.45-.08.33.33,0,0,1,.08-.45l.08-.06a.32.32,0,0,1,.45.07.32.32,0,0,1-.07.46Z"/><path class="cls-293" d="M200.14,240.42l-.08,0a.26.26,0,0,1-.35-.12.25.25,0,0,1,.12-.34l.08-.05a.26.26,0,0,1,.35.12.25.25,0,0,1-.11.34Z"/><path class="cls-294" d="M187.94,245.28l-.09,0a.21.21,0,0,1-.28-.14.23.23,0,0,1,.14-.29l.1,0a.23.23,0,0,1,.14.43Z"/><path class="cls-295" d="M175.15,248.21h-.1a.19.19,0,0,1-.22-.17.2.2,0,0,1,.16-.23h.1a.2.2,0,1,1,.06.4Z"/><path class="cls-296" d="M162.11,230.39h-.06a.17.17,0,0,1-.17-.17.17.17,0,0,1,.17-.18h.06a.18.18,0,0,1,.17.18A.18.18,0,0,1,162.11,230.39Z"/><path class="cls-297" d="M149.09,229.18l-.1,0a.21.21,0,0,1-.17-.24.22.22,0,0,1,.25-.17h0l.1,0a.21.21,0,0,1,.16.25A.2.2,0,0,1,149.09,229.18Z"/><path class="cls-298" d="M136.5,225.44l-.09,0a.24.24,0,0,1-.14-.32.25.25,0,0,1,.32-.13h0l.1,0a.25.25,0,0,1,.13.32A.25.25,0,0,1,136.5,225.44Z"/><path class="cls-299" d="M124.84,219.36l-.08-.06a.31.31,0,1,1,.34-.53h0l.08.05a.31.31,0,0,1,.09.44A.33.33,0,0,1,124.84,219.36Z"/><path class="cls-300" d="M114.55,211.13l-.07-.07a.41.41,0,0,1,0-.58.4.4,0,0,1,.57,0h0l.07.07a.41.41,0,0,1,0,.58A.42.42,0,0,1,114.55,211.13Z"/><path class="cls-301" d="M106,201.08l0-.08a.54.54,0,0,1,.13-.75.53.53,0,0,1,.74.13h0l0,.08a.53.53,0,0,1-.15.74.54.54,0,0,1-.73-.13Z"/><path class="cls-302" d="M99.45,189.52l0-.09a.68.68,0,1,1,1.24-.55h0v0l0,.09a.68.68,0,0,1-1.25.53Z"/><path class="cls-303" d="M95.31,176.85l0-.1a.82.82,0,1,1,1.61-.35h0v.12a.82.82,0,0,1-1.6.34Z"/><path class="cls-304" d="M93.73,163.57v-.11a1,1,0,1,1,1.93,0v.14a1,1,0,0,1-1.93,0Z"/><path class="cls-305" d="M94.75,150.17v-.11a1.12,1.12,0,0,1,1.29-.9,1.11,1.11,0,0,1,.9,1.29v0l0,.1a1.1,1.1,0,0,1-1.3.88,1.12,1.12,0,0,1-.88-1.28Z"/><path class="cls-306" d="M98.38,137.17l0-.1a1.26,1.26,0,0,1,2.34.91V138l0,.1a1.25,1.25,0,0,1-2.32-.94Z"/><path class="cls-307" d="M104.53,125.09l0-.08a1.4,1.4,0,0,1,2.36,1.5v0l0,0-.06.09a1.4,1.4,0,0,1-2.34-1.54Z"/><path class="cls-308" d="M113,114.43l.07-.07a1.52,1.52,0,1,1,2.18,2.13h0l0,0-.07.07a1.52,1.52,0,0,1-2.17-2.14Z"/><path class="cls-309" d="M123.38,105.65l.08-.06a1.61,1.61,0,0,1,1.83,2.66h0l-.08.06a1.61,1.61,0,0,1-1.81-2.67Z"/><path class="cls-310" d="M135.35,99.07l.09,0a1.69,1.69,0,0,1,1.31,3.11h0l-.09,0a1.68,1.68,0,0,1-1.29-3.11Z"/><path class="cls-311" d="M148.42,95l.1,0a1.72,1.72,0,1,1,.68,3.37h0l-.1,0a1.72,1.72,0,0,1-.67-3.37Z"/><path class="cls-312" d="M162,93.65h.1a1.75,1.75,0,1,1,0,3.49H162a1.75,1.75,0,1,1,0-3.49Z"/><path class="cls-313" d="M175.66,95l.1,0a1.73,1.73,0,0,1,1.35,2,1.7,1.7,0,0,1-2,1.34l-.1,0h0a1.71,1.71,0,0,1,.66-3.36Z"/><path class="cls-314" d="M188.75,99l.09,0a1.68,1.68,0,1,1-1.29,3.11l-.09,0h0a1.68,1.68,0,1,1,1.29-3.1Z"/><path class="cls-315" d="M200.73,105.59l.09.06h0a1.61,1.61,0,0,1-1.8,2.66l-.08-.06h0a1.6,1.6,0,0,1,1.78-2.67Z"/><path class="cls-316" d="M211.16,114.36l.07.07v0a1.51,1.51,0,0,1-2.15,2.13l-.07-.07h0a1.52,1.52,0,1,1,2.14-2.15Z"/><path class="cls-317" d="M219.6,125l.06.08v0a1.39,1.39,0,0,1-2.32,1.52l0-.08,0,0a1.39,1.39,0,1,1,2.31-1.55Z"/><path class="cls-318" d="M225.76,137.06l0,.09v0a1.25,1.25,0,0,1-2.31.93l0-.09,0,0a1.25,1.25,0,0,1,2.3-1Z"/><path class="cls-319" d="M229.42,150l0,.1v0a1.1,1.1,0,0,1-2.17.41l0-.1v0a1.1,1.1,0,1,1,2.16-.43Z"/><path class="cls-320" d="M230.47,163.43v.12a1,1,0,0,1-1.92,0v-.12a1,1,0,0,1,1.92,0Z"/><path class="cls-321" d="M228.91,176.72l0,.1h0a.82.82,0,0,1-1.6-.33l0-.1h0a.81.81,0,0,1,1.6.31Z"/><path class="cls-322" d="M224.8,189.4l0,.09h0a.67.67,0,0,1-.88.35.68.68,0,0,1-.35-.87l0-.09v0a.68.68,0,0,1,1.25.52Z"/><path class="cls-323" d="M218.31,201l-.06.08h0a.53.53,0,0,1-.87-.59l.06-.08h0a.53.53,0,1,1,.88.59Z"/><path class="cls-324" d="M209.74,211l-.07.07a.4.4,0,0,1-.57,0,.42.42,0,0,1,0-.57l.07-.07h0a.4.4,0,0,1,.57,0,.41.41,0,0,1,0,.57Z"/><path class="cls-325" d="M199.47,219.29l-.08.05a.32.32,0,0,1-.44-.08.31.31,0,0,1,.09-.44l.08,0a.31.31,0,0,1,.44.08.32.32,0,0,1-.09.44Z"/><path class="cls-326" d="M187.82,225.39l-.09,0a.24.24,0,0,1-.31-.13.25.25,0,0,1,.13-.32l.09,0a.25.25,0,0,1,.32.13.25.25,0,0,1-.13.32Z"/><path class="cls-327" d="M175.25,229.16l-.1,0a.21.21,0,0,1-.08-.41l.1,0a.21.21,0,0,1,.24.16.21.21,0,0,1-.16.25Z"/><path class="cls-328" d="M162.11,211.63H162a.17.17,0,0,1-.18-.17.18.18,0,0,1,.17-.18h.11a.18.18,0,0,1,.17.18A.17.17,0,0,1,162.11,211.63Z"/><path class="cls-329" d="M149.1,209.94l-.1,0a.23.23,0,0,1-.16-.27.23.23,0,0,1,.28-.16h0l.1,0a.23.23,0,0,1,.15.27A.23.23,0,0,1,149.1,209.94Z"/><path class="cls-330" d="M137,204.82l-.08,0a.3.3,0,1,1,.3-.52h0l.08.05a.29.29,0,0,1,.1.41A.3.3,0,0,1,137,204.82Z"/><path class="cls-331" d="M126.61,196.66l-.07-.07a.42.42,0,1,1,.6-.59h0l.07.07a.43.43,0,0,1,0,.6.41.41,0,0,1-.59,0Z"/><path class="cls-332" d="M118.64,186l0-.09a.61.61,0,0,1,.24-.84.62.62,0,0,1,.84.24v0l0,.08a.61.61,0,0,1-1.08.58Z"/><path class="cls-333" d="M113.8,173.55l0-.1a.82.82,0,0,1,.61-1,.83.83,0,0,1,1,.61v0l0,.09a.82.82,0,0,1-1.6.35Z"/><path class="cls-334" d="M112.5,160.12V160a1,1,0,1,1,2,.09v.16a1,1,0,0,1-1.08.94,1,1,0,0,1-1-1Z"/><path class="cls-335" d="M114.88,146.72l0-.1a1.21,1.21,0,0,1,2.31.75v0l0,0,0,.09a1.22,1.22,0,0,1-2.31-.78Z"/><path class="cls-336" d="M120.86,134.38l0-.08a1.42,1.42,0,0,1,2.37,1.57l0,0,0,0-.06.08a1.42,1.42,0,0,1-2.33-1.61Z"/><path class="cls-337" d="M130.06,124.11l.08-.06a1.57,1.57,0,1,1,2,2.4h0l0,0-.08.06a1.57,1.57,0,0,1-2-2.42Z"/><path class="cls-338" d="M141.79,116.73l.09,0a1.68,1.68,0,1,1,1.36,3.07h0l-.09,0a1.68,1.68,0,0,1-1.34-3.08Z"/><path class="cls-339" d="M155.16,112.91l.1,0a1.73,1.73,0,1,1,.48,3.43h-.12a1.73,1.73,0,0,1-.46-3.42Z"/><path class="cls-340" d="M169.06,112.92h.11a1.73,1.73,0,0,1-.47,3.42l-.1,0h0a1.73,1.73,0,1,1,.46-3.42Z"/><path class="cls-341" d="M182.43,116.74l.1,0a1.68,1.68,0,0,1-1.34,3.08l-.09,0h0a1.68,1.68,0,0,1,1.33-3.08Z"/><path class="cls-342" d="M194.15,124.13l.08.07h0a1.56,1.56,0,0,1-2,2.41l-.08-.07h0a1.56,1.56,0,0,1,2-2.43Z"/><path class="cls-343" d="M203.35,134.41l.05.08,0,0a1.41,1.41,0,0,1-2.32,1.59l0-.08,0,0a1.41,1.41,0,1,1,2.3-1.63Z"/><path class="cls-344" d="M209.31,146.74l0,.09v0a1.2,1.2,0,0,1-2.28.78l0-.1v0a1.21,1.21,0,1,1,2.27-.81Z"/><path class="cls-345" d="M211.69,160.12v.13a1,1,0,0,1-2,.11v-.13a1,1,0,1,1,2-.14Z"/><path class="cls-346" d="M210.4,173.55l0,.1v0a.8.8,0,0,1-1.57-.35l0-.1v0a.81.81,0,1,1,1.59.33Z"/><path class="cls-347" d="M205.56,186l-.05.08v0a.6.6,0,0,1-.83.23.61.61,0,0,1-.24-.81l0-.09h0a.61.61,0,0,1,1.09.56Z"/><path class="cls-348" d="M197.6,196.66l-.07.07h0a.42.42,0,1,1-.6-.58l.06-.07h0a.42.42,0,0,1,.61.57Z"/><path class="cls-349" d="M187.22,204.82l-.09.05a.29.29,0,0,1-.4-.1.31.31,0,0,1,.1-.41l.08-.05h0a.29.29,0,0,1,.4.1.28.28,0,0,1-.1.4Z"/><path class="cls-350" d="M175.11,209.94l-.09,0a.22.22,0,0,1-.12-.42l.1,0a.22.22,0,0,1,.27.15.23.23,0,0,1-.15.28Z"/><path class="cls-351" d="M162.11,192.88H162a.18.18,0,0,1-.18-.18.18.18,0,0,1,.17-.17h.11a.18.18,0,0,1,.17.17A.18.18,0,0,1,162.11,192.88Z"/><path class="cls-352" d="M149.3,190.09l-.1,0a.26.26,0,0,1-.12-.34.25.25,0,0,1,.33-.13h0l.09,0a.25.25,0,0,1,.11.34.24.24,0,0,1-.33.12Z"/><path class="cls-353" d="M138.72,182.15l-.07-.07a.47.47,0,0,1,.71-.63l0,0v0l.06.08a.46.46,0,0,1-.07.66.47.47,0,0,1-.65-.06Z"/><path class="cls-354" d="M132.32,170.31l0-.1a.81.81,0,0,1,.56-1,.8.8,0,0,1,1,.56v.08l0,.09a.8.8,0,0,1-1.55.39Z"/><path class="cls-355" d="M131.7,156.57l0-.11a1.13,1.13,0,0,1,2.23.41v.1l0,.1a1.13,1.13,0,0,1-1.36.85,1.15,1.15,0,0,1-.86-1.31Z"/><path class="cls-356" d="M137.23,143.67l.07-.09a1.46,1.46,0,1,1,2.36,1.72l0,.06,0,0-.06.08a1.46,1.46,0,0,1-2.06.22,1.45,1.45,0,0,1-.26-2Z"/><path class="cls-357" d="M148.13,134.47l.09-.05a1.68,1.68,0,0,1,1.48,3h0l0,0-.09,0a1.68,1.68,0,0,1-1.46-3Z"/><path class="cls-358" d="M162.11,131.16h.11a1.75,1.75,0,0,1,0,3.5h-.12a1.75,1.75,0,0,1,0-3.5Z"/><path class="cls-359" d="M176.09,134.49l.1,0h0a1.67,1.67,0,0,1-1.49,3l-.09,0,0,0a1.67,1.67,0,1,1,1.45-3Z"/><path class="cls-360" d="M187,143.68l.06.09,0,0a1.45,1.45,0,0,1-2.3,1.75l-.06-.08,0-.05a1.45,1.45,0,0,1,2.27-1.81A.1.1,0,0,0,187,143.68Z"/><path class="cls-361" d="M192.5,156.57v.14a1.12,1.12,0,0,1-2.19.45l0-.1,0-.05a1.13,1.13,0,0,1,.85-1.34,1.12,1.12,0,0,1,1.34.84S192.49,156.55,192.5,156.57Z"/><path class="cls-362" d="M191.88,170.3l0,.1v0a.79.79,0,0,1-1.54-.38l0-.1v0a.8.8,0,1,1,1.55.36Z"/><path class="cls-363" d="M185.49,182.15l-.07.08v0a.47.47,0,0,1-.72-.6l.07-.08v0a.47.47,0,1,1,.73.59Z"/><path class="cls-364" d="M174.91,190.09l-.09,0h0a.24.24,0,0,1-.33-.12.25.25,0,0,1,.12-.33l.09,0h0a.26.26,0,0,1,.34.12.25.25,0,0,1-.12.34Z"/><path class="cls-365" d="M162.16,174.12H162a.18.18,0,0,1-.17-.18.18.18,0,0,1,.17-.17h.16a.18.18,0,0,1,.18.17A.18.18,0,0,1,162.16,174.12Z"/><path class="cls-366" d="M151.06,167.12,151,167a.73.73,0,1,1,1.31-.63l0,.09,0,.1,0,.09a.72.72,0,0,1-1.33.52Z"/><path class="cls-367" d="M154.25,152.77l.09-.08a1.6,1.6,0,0,1,2,2.46l-.09.06-.09.07-.08.06a1.59,1.59,0,0,1-1.95-2.52Z"/><path class="cls-368" d="M169.88,152.72l.1.08.06,0a1.58,1.58,0,0,1-1.94,2.5l-.08-.06-.08-.06a1.59,1.59,0,1,1,1.86-2.58A.27.27,0,0,1,169.88,152.72Z"/><path class="cls-369" d="M173.18,167l-.05.11,0,.07a.7.7,0,0,1-1.3-.52l0-.09,0-.09a.71.71,0,1,1,1.36.43Z"/></g></g></svg>