<svg xmlns="http://www.w3.org/2000/svg" viewBox="0 0 50.94 17.09"><defs><style>.cls-1,.cls-2{fill:none;stroke:#000;stroke-miterlimit:10;stroke-width:2px;}.cls-1{stroke-linecap:round;}</style></defs><title>icon-lights-on</title><g id="Layer_2" data-name="Layer 2"><g id="Layer_1-2" data-name="Layer 1"><line class="cls-1" x1="1" y1="8.54" x2="7" y2="8.54"/><line class="cls-1" x1="1" y1="8.31" x2="7" y2="8.31"/><path class="cls-2" d="M22.89,8.54c0,4.17-4.65,7.55-7.7,7.55s-4.31-3.38-4.31-7.55S12.15,1,15.19,1,22.89,4.38,22.89,8.54Z"/><line class="cls-1" x1="2.33" y1="1.43" x2="7.67" y2="4.16"/><line class="cls-1" x1="2.33" y1="15.66" x2="7.67" y2="12.93"/><line class="cls-1" x1="49.94" y1="8.54" x2="43.94" y2="8.54"/><line class="cls-1" x1="49.94" y1="8.78" x2="43.94" y2="8.78"/><path class="cls-2" d="M28.05,8.54C28.05,4.38,32.69,1,35.74,1s4.32,3.38,4.32,7.54-1.27,7.55-4.32,7.55S28.05,12.71,28.05,8.54Z"/><line class="cls-1" x1="48.61" y1="15.66" x2="43.26" y2="12.93"/><line class="cls-1" x1="48.61" y1="1.43" x2="43.26" y2="4.16"/></g></g></svg>