<svg xmlns="http://www.w3.org/2000/svg" xmlns:xlink="http://www.w3.org/1999/xlink" viewBox="0 0 14.23 25.88"><defs><style>.cls-1,.cls-3{fill:none;}.cls-2{clip-path:url(#clip-path);}.cls-3{stroke:#000;stroke-linecap:round;stroke-miterlimit:10;stroke-width:2px;}</style><clipPath id="clip-path" transform="translate(-4.83)"><rect class="cls-1" y="3.88" width="24" height="24"/></clipPath></defs><title>light bulb</title><g id="Layer_2" data-name="Layer 2"><g id="Layer_1-2" data-name="Layer 1"><g class="cls-2"><path d="M9,24.88a1,1,0,0,0,1,1h4a1,1,0,0,0,1-1v-1H9Zm3-19A7,7,0,0,0,8,18.62v2.26a1,1,0,0,0,1,1h6a1,1,0,0,0,1-1V18.62A7,7,0,0,0,12,5.88ZM14.85,17l-.85.6v2.3H10v-2.3L9.15,17a5,5,0,1,1,5.7,0Z" transform="translate(-4.83)"/></g><line class="cls-3" x1="7.17" y1="1" x2="7.17" y2="4"/><line class="cls-3" x1="13.23" y1="2.2" x2="11.73" y2="4.8"/><line class="cls-3" x1="1" y1="2.2" x2="2.5" y2="4.8"/></g></g></svg>