<?xml version="1.0" encoding="utf-8"?>
<!-- Generator: Adobe Illustrator 22.0.1, SVG Export Plug-In . SVG Version: 6.00 Build 0)  -->
<svg version="1.1" id="Layer_1" xmlns="http://www.w3.org/2000/svg" xmlns:xlink="http://www.w3.org/1999/xlink" x="0px" y="0px"
	 viewBox="0 0 42.7 41.3" style="enable-background:new 0 0 42.7 41.3;" xml:space="preserve">
<style type="text/css">
	.st0{clip-path:url(#SVGID_2_);}
	.st1{fill:none;stroke:#000000;stroke-width:2;stroke-linecap:round;stroke-miterlimit:10;}
</style>
<g>
	<defs>
		<rect id="SVGID_1_" x="10.1" y="11.1" width="24" height="24"/>
	</defs>
	<clipPath id="SVGID_2_">
		<use xlink:href="#SVGID_1_"  style="overflow:visible;"/>
	</clipPath>
	<path class="st0" d="M19.1,32.1c0,0.5,0.4,1,1,1h4c0.5,0,1-0.5,1-1v-1h-6V32.1z M22.1,13.1c-3.9,0-7,3.1-7,7c0,2.4,1.2,4.5,3,5.7
		v2.3c0,0.5,0.4,1,1,1h6c0.5,0,1-0.5,1-1v-2.3c1.8-1.3,3-3.4,3-5.7C29.1,16.2,26,13.1,22.1,13.1z M25,24.2l-0.9,0.6v2.3h-4v-2.3
		l-0.9-0.6c-1.4-0.9-2.1-2.5-2.1-4.1c0-2.8,2.2-5,5-5s5,2.2,5,5C27.1,21.7,26.3,23.2,25,24.2z"/>
</g>
<g>
	<line class="st1" x1="13.4" y1="28.9" x2="15.3" y2="27"/>
	<line class="st1" x1="9.7" y1="20.1" x2="12.4" y2="20.1"/>
	<line class="st1" x1="13.4" y1="11.3" x2="15.3" y2="13.2"/>
	<line class="st1" x1="22.1" y1="7.7" x2="22.1" y2="10.4"/>
	<line class="st1" x1="30.9" y1="11.3" x2="29" y2="13.2"/>
	<line class="st1" x1="34.5" y1="20.1" x2="31.9" y2="20.1"/>
	<line class="st1" x1="30.9" y1="28.9" x2="29" y2="27"/>
</g>
</svg>
